<svg xmlns="http://www.w3.org/2000/svg">
    <symbol id="app-logo" viewBox="0 0 120 35">
        <path d="M59.596 29.523l2.762-1.822L69.99 4.876l8.449 22.96 2.466 1.687H71.96l3.223-1.788-1.809-5.533h-7.629l-1.809 5.5 3.19 1.821h-7.53zm6.675-8.906h6.61l-3.288-10.02-3.322 10.02zm-30.891-.57c0 3.292 0 6.281.065 9.237h2.587c5.043 0 7.859-3.527 7.859-9.64 0-6.315-2.816-9.74-7.564-9.74h-2.882c-.066 2.922-.066 5.911-.066 8.9v1.243zM29.19 8.358h9.66c6.288 0 10.61 3.997 10.61 11.286 0 7.255-4.846 11.219-11.232 11.219H29.19l3.013-1.747c.066-2.855.066-5.81.066-9.069v-1.243c0-2.888 0-5.81-.066-8.699L29.19 8.358zm62.63-1.339h9.265l-3.012 1.746c-.066 2.889-.066 5.81-.066 8.7v2.317c0 2.385 0 5.206.066 8.061h7.431l2.947-4.635-.327 6.315H91.819l3.012-1.747c.066-2.889.066-5.777.066-8.632v-1.68c0-2.922 0-5.844-.066-8.699L91.82 7.02z" />
        <path fill="#FF617A" d="M20.483 5.383c-7.126-1.604-2.956 5.111-1.11 12.794-1.085 4.233-12.51 7.717 1.11 11.8 11.512 3.453 14.744-3.858 13.73-10.466-.47-3.34-4.824-12.124-13.73-14.128z" />
        <path fill="#17181A" fill-rule="evenodd" d="M18.234 4.16c.702-.056 1.525.035 2.468.247 4.735 1.066 8.233 3.928 10.594 6.92 2.341 2.965 3.639 6.154 3.906 8.039.53 3.464-.017 7.308-2.433 9.841-2.48 2.6-6.62 3.513-12.574 1.728-3.408-1.022-5.51-2.07-6.544-3.279-.555-.649-.827-1.372-.79-2.14.037-.732.35-1.386.724-1.942.578-.856 1.485-1.718 2.304-2.496.203-.192.4-.38.587-.562.938-.914 1.6-1.68 1.86-2.37-.413-1.666-.932-3.286-1.42-4.808l-.103-.322c-.532-1.665-1.032-3.253-1.237-4.564-.194-1.232-.206-2.666.799-3.57.502-.452 1.15-.665 1.859-.722zm1.14 14.017c-.329 1.28-1.602 2.491-2.842 3.671-2.863 2.723-5.55 5.28 3.95 8.13 11.513 3.451 14.745-3.86 13.73-10.467-.47-3.34-4.823-12.124-13.73-14.129-5.458-1.228-4.287 2.426-2.611 7.658.512 1.597 1.07 3.34 1.502 5.137z" clip-rule="evenodd" />
        <path fill="#75D6FF" d="M78.265 6.511c-6.85 2.563-2.408 10.491 1.635 15.697-6.981 9.145 7.007 7.524 13.556 6.92 2.676-3.064 3.772-7.25.063-10.593-3.709-3.342-5.348 1.675-6.112 4.045 1.16 1.435 1.518 4.496-1.581 4.987-4.04.64-1.357-10.035.49-15.452.777-2.25 3.291-9.847-8.051-5.604z" />
        <path fill="#17181A" fill-rule="evenodd" d="M86.29 22.794l.181-.565c.369-1.142 1.02-3.164 2.13-4.461.585-.684 1.396-1.285 2.458-1.343 1.053-.057 2.1.435 3.131 1.365 2.068 1.864 2.858 4.042 2.688 6.219-.167 2.128-1.241 4.138-2.672 5.775l-.265.304-.4.037-.703.065c-1.512.143-3.352.316-5.207.398-2.144.095-4.382.073-6.222-.28-1.757-.338-3.555-1.058-4.19-2.71-.58-1.508-.007-3.312 1.433-5.37-1.904-2.533-3.87-5.678-4.622-8.603-.41-1.59-.49-3.224.107-4.685.61-1.497 1.864-2.647 3.783-3.365 2.888-1.08 5.034-1.465 6.614-1.289 1.662.186 2.722 1.005 3.223 2.2.458 1.092.386 2.352.208 3.374-.182 1.047-.509 2.01-.704 2.576-.913 2.679-2.021 6.626-2.406 9.792-.195 1.608-.186 2.881.043 3.673.112.386.246.551.33.617.054.042.163.106.448.06.61-.096.963-.303 1.169-.506a1.35 1.35 0 0 0 .38-.788c.106-.691-.167-1.54-.597-2.07l-.339-.42zm.026-10.678c.777-2.251 3.291-9.847-8.051-5.604-6.85 2.563-2.408 10.491 1.635 15.697-6.739 8.827 6.06 7.624 12.847 6.985l.709-.066c2.675-3.063 3.772-7.25.063-10.592-3.709-3.343-5.348 1.675-6.113 4.045 1.161 1.435 1.519 4.495-1.58 4.986-4.04.64-1.357-10.034.49-15.451z" clip-rule="evenodd" />
        <path fill="#17181A" d="M30.068 22.798l-1.59-.598 1.56-.193-1.482-1.985 1.584 1.504.668-3.108.725 2.283 1.632.765-1.195.478-.038 3.083-.953-1.741-1.337 1.499.426-1.987z" />
        <path fill="#fff" d="M33.264 9.513c-1.252-.43-2.05-1.703-2.363-2.833-.195-.7.681-1.27 1.274-1.691.33-.234.7-.618 1.089-1.236 1.27-2.014 1.645.43 2.225 2.436.07.245.057.505-.013.75-.334 1.162-.54 3.15-2.212 2.574z" />
        <path fill="#17181A" fill-rule="evenodd" d="M32.94 10.46c-1.692-.582-2.644-2.222-3.002-3.513-.241-.868.234-1.542.58-1.907.314-.33.72-.614.987-.802l.092-.064c.197-.14.483-.416.822-.954a3.75 3.75 0 0 1 .606-.76c.219-.2.533-.411.94-.453a1.4 1.4 0 0 1 1.057.341c.23.196.388.44.497.645.217.41.382.933.519 1.412.065.231.13.473.193.708l.014.054a50 50 0 0 0 .205.745l-.96.277a42.88 42.88 0 0 1-.225-.816c-.472-1.764-.9-3.365-2-1.62-.39.618-.76 1.002-1.09 1.236l-.097.07c-.586.412-1.36.958-1.177 1.62.314 1.131 1.112 2.404 2.363 2.835 1.444.496 1.794-.916 2.078-2.06.045-.18.089-.356.134-.515.07-.244.084-.505.013-.75l.961-.277c.133.46.099.915-.013 1.304-.047.165-.08.298-.117.45-.034.14-.072.296-.13.508-.097.359-.23.785-.434 1.172-.204.385-.529.822-1.057 1.074-.554.264-1.161.245-1.76.04z" clip-rule="evenodd" />
        <path fill="#fff" d="M11.286 19.673c-.832 0 .347-3.394 1.04-5.09 1.948-3.885 3.508 1.339 3.378 3.214-.13 1.876-3.379 1.876-4.418 1.876z" />
        <path fill="#17181A" fill-rule="evenodd" d="M15.992 15.846c.165.72.248 1.45.21 1.986-.043.633-.358 1.108-.79 1.444-.418.325-.945.523-1.457.648-1.017.249-2.137.249-2.657.249h-.012a.73.73 0 0 1-.673-.434c-.097-.2-.115-.432-.113-.63.005-.408.11-.934.25-1.472.285-1.09.762-2.385 1.113-3.244l.007-.018.009-.017c.257-.512.523-.908.806-1.186.284-.28.611-.465.976-.489.369-.024.687.122.94.327.247.2.453.474.625.767.343.587.601 1.348.766 2.07zm-3.211-1.056c.227-.45.432-.735.605-.905.174-.171.287-.2.34-.204.05-.003.128.011.244.105.121.098.255.262.393.496.274.468.503 1.122.654 1.787.153.666.216 1.292.188 1.694-.021.304-.16.532-.407.724-.26.203-.635.357-1.08.466-.783.19-1.66.216-2.218.22v-.05c.004-.282.081-.71.218-1.233.267-1.023.721-2.262 1.063-3.1z" clip-rule="evenodd" />
        <path fill="#fff" d="M102.847 9.43c1.351 0 2.942-.517 4.345-1.168.678-.314 1.499.08 1.619.818l.385 2.383c.012.074.017.147.012.221-.122 1.849-1.179 4.977-4.542 3.506-4.288-1.875-3.017-5.76-1.819-5.76z" />
        <path fill="#17181A" fill-rule="evenodd" d="M108.317 9.16c-.061-.382-.509-.632-.915-.444-1.427.661-3.096 1.214-4.555 1.214-.028 0-.2.046-.388.38-.171.306-.289.754-.26 1.268.056.995.674 2.282 2.668 3.154.773.338 1.363.39 1.812.3.444-.089.8-.328 1.091-.673.601-.712.881-1.832.939-2.708a.466.466 0 0 0-.007-.108l-.385-2.384zm-1.335-1.351c.951-.441 2.145.096 2.322 1.19l.386 2.384c.017.106.024.217.017.334-.065.972-.374 2.34-1.173 3.287-.409.485-.955.867-1.658 1.009-.7.14-1.502.032-2.41-.365-2.295-1.003-3.185-2.596-3.266-4.013-.039-.69.117-1.33.387-1.813.254-.453.69-.892 1.26-.892 1.244 0 2.755-.482 4.135-1.121z" clip-rule="evenodd" />
        <path fill="#C1F78D" d="M49.377 29.282c2.668 3.584 7.093.084 8.834-1.33 1.749 1.233 4.092 1.586 6.685-.645.486-.418.781-.75 1.373-2.58.926-2.865-3.845-10.06-5.34-13.98-2.811-7.368-11.592-6.822-14.163-1.177-1.688 3.706-1.435 6.52.545 11.09 2.475 5.711.179 6.088 2.066 8.622z" />
        <path fill="#17181A" fill-rule="evenodd" d="M57.803 28.28c-1.949 1.545-5.947 4.333-8.427 1.002-.873-1.172-.85-1.883-.82-2.873.037-1.151.084-2.68-1.245-5.75-1.98-4.569-2.233-7.383-.545-11.09 2.57-5.644 11.351-6.19 14.162 1.178.471 1.235 1.267 2.794 2.108 4.441 1.828 3.582 3.867 7.576 3.232 9.54-.591 1.828-.887 2.16-1.373 2.579-2.593 2.231-4.936 1.879-6.685.646-.123.1-.259.21-.407.327zm.467.899c-.925.724-2.305 1.71-3.8 2.255-.93.34-1.977.535-3.027.337-1.078-.203-2.064-.803-2.867-1.88-.542-.728-.828-1.365-.95-2.027-.097-.525-.08-1.044-.065-1.494l.006-.22c.026-.991.004-2.367-1.17-5.08-1.01-2.328-1.62-4.299-1.73-6.209-.11-1.934.296-3.73 1.194-5.7 2.949-6.476 12.88-6.957 15.998 1.216.353.925.91 2.067 1.554 3.34l.506.994c.495.97 1.013 1.985 1.487 2.978.638 1.336 1.22 2.682 1.584 3.896.349 1.169.558 2.413.226 3.442-.3.93-.549 1.553-.812 2.012a3.643 3.643 0 0 1-.867 1.027c-1.436 1.236-2.883 1.82-4.281 1.866-1.109.036-2.114-.27-2.986-.753z" clip-rule="evenodd" />
        <path fill="#17181A" d="M55.534 13.767l1.589-2.371-.415 1.76 1.658-1.15-1.243 1.76 1.796.881-1.796.542v1.423l-1.037-1.423c-.506.7-1.575 2.14-1.796 2.303-.221.163.276-2.055.553-3.184l-1.106-.541h1.797z" />
        <path fill="#17181A" fill-rule="evenodd" d="M56.266 26.919c-.6-1.117-.99-2.38-1.166-3.21l.978-.208c.162.76.523 1.93 1.068 2.944.563 1.046 1.239 1.773 1.963 1.917l-.194.98c-1.2-.237-2.066-1.339-2.65-2.423z" clip-rule="evenodd" />
    </symbol>
    <symbol id="direction-left" viewBox="0 0 24 24">
        <path d="M17.885 3.77L16.115 2l-10 10 10 10 1.77-1.77L9.655 12l8.23-8.23z" />
    </symbol>
    <symbol id="direction-right" viewBox="0 0 24 24">
        <path d="M6.115 20.23L7.885 22l10-10-10-10-1.77 1.77 8.23 8.23-8.23 8.23z" />
    </symbol>
    <symbol id="home" viewBox="0 0 32 32" fill="none">
        <path fill-rule="evenodd" clip-rule="evenodd" d="M16 6L7 13.5V26H13V18.5H19V26H25V13.5L16 6Z" fill="white"/>
    </symbol>
    <symbol id="kakaoTalk" viewBox="0 0 22 20" fill="none">
        <path d="M10.999 0.5C16.799 0.5 21.5 4.10725 21.5 8.55823C21.5 13.0082 16.799 16.6155 11 16.6155C10.4226 16.6157 9.84572 16.5796 9.273 16.5072L4.865 19.3455C4.364 19.6064 4.187 19.5779 4.393 18.9389L5.285 15.3179C2.405 13.8805 0.5 11.3897 0.5 8.55823C0.5 4.10824 5.2 0.5 11 0.5H10.999ZM16.907 8.43516L18.377 7.03322C18.4618 6.94649 18.5091 6.83074 18.509 6.71034C18.5089 6.58995 18.4612 6.47431 18.3762 6.38778C18.2912 6.30126 18.1753 6.2506 18.0531 6.24649C17.9309 6.24237 17.8118 6.28512 17.721 6.36572L15.793 8.20282V6.6847C15.793 6.56146 15.7433 6.44326 15.6548 6.35612C15.5662 6.26897 15.4462 6.22001 15.321 6.22001C15.1958 6.22001 15.0758 6.26897 14.9872 6.35612C14.8987 6.44326 14.849 6.56146 14.849 6.6847V9.2021C14.8314 9.27392 14.8314 9.34884 14.849 9.42066V10.8374C14.849 10.9606 14.8987 11.0788 14.9872 11.166C15.0758 11.2531 15.1958 11.3021 15.321 11.3021C15.4462 11.3021 15.5662 11.2531 15.6548 11.166C15.7433 11.0788 15.793 10.9606 15.793 10.8374V9.49548L16.22 9.08888L17.648 11.0904C17.6837 11.1404 17.729 11.1829 17.7813 11.2157C17.8337 11.2484 17.8921 11.2707 17.9532 11.2812C18.0143 11.2917 18.0769 11.2902 18.1374 11.2769C18.198 11.2636 18.2552 11.2387 18.306 11.2036C18.3568 11.1685 18.4 11.1239 18.4332 11.0724C18.4665 11.0208 18.4891 10.9633 18.4998 10.9032C18.5105 10.843 18.509 10.7814 18.4955 10.7218C18.482 10.6622 18.4567 10.6058 18.421 10.5558L16.907 8.43418V8.43516ZM13.949 10.3294H12.489V6.69947C12.4834 6.58006 12.4313 6.46735 12.3435 6.38479C12.2557 6.30223 12.1389 6.25616 12.0175 6.25616C11.8961 6.25616 11.7793 6.30223 11.6915 6.38479C11.6037 6.46735 11.5516 6.58006 11.546 6.69947V10.7941C11.546 11.05 11.756 11.2587 12.017 11.2587H13.949C14.0742 11.2587 14.1942 11.2098 14.2828 11.1226C14.3713 11.0355 14.421 10.9173 14.421 10.7941C14.421 10.6708 14.3713 10.5526 14.2828 10.4655C14.1942 10.3783 14.0742 10.3294 13.949 10.3294ZM8.092 9.25526L8.788 7.57372L9.426 9.25428L8.092 9.25526ZM10.615 9.73472L10.617 9.71897C10.6168 9.6019 10.5714 9.48929 10.49 9.40392L9.444 6.64729C9.40015 6.51593 9.31663 6.40086 9.20459 6.31747C9.09255 6.23409 8.95733 6.18635 8.817 6.18063C8.67564 6.18002 8.53744 6.2218 8.42079 6.30041C8.30414 6.37903 8.21457 6.49075 8.164 6.62071L6.502 10.6326C6.45466 10.7467 6.4553 10.8746 6.50378 10.9883C6.55225 11.1019 6.6446 11.192 6.7605 11.2386C6.8764 11.2852 7.00636 11.2845 7.12179 11.2368C7.23722 11.1891 7.32866 11.0982 7.376 10.9841L7.708 10.1837H9.778L10.076 10.9713C10.0963 11.0301 10.1285 11.0844 10.1705 11.1308C10.2125 11.1772 10.2635 11.2149 10.3206 11.2416C10.3777 11.2682 10.4396 11.2833 10.5027 11.286C10.5658 11.2886 10.6288 11.2788 10.688 11.257C10.7471 11.2353 10.8013 11.2021 10.8472 11.1594C10.8931 11.1166 10.9298 11.0653 10.9551 11.0083C10.9805 10.9514 10.994 10.89 10.9948 10.8278C10.9957 10.7657 10.9838 10.704 10.96 10.6464L10.615 9.73472ZM7.293 6.70439C7.293 6.58132 7.24341 6.46327 7.15511 6.37615C7.06681 6.28904 6.94701 6.23996 6.822 6.2397H3.577C3.45182 6.2397 3.33176 6.28866 3.24325 6.37581C3.15473 6.46295 3.105 6.58115 3.105 6.70439C3.105 6.82764 3.15473 6.94583 3.24325 7.03298C3.33176 7.12012 3.45182 7.16908 3.577 7.16908H4.737V10.8472C4.737 10.9705 4.78673 11.0887 4.87525 11.1758C4.96376 11.2629 5.08382 11.3119 5.209 11.3119C5.33418 11.3119 5.45424 11.2629 5.54275 11.1758C5.63127 11.0887 5.681 10.9705 5.681 10.8472V7.16908H6.821C6.94618 7.16908 7.06624 7.12012 7.15475 7.03298C7.24327 6.94583 7.293 6.82764 7.293 6.70439Z" fill="#17181A"/>
    </symbol>
    <symbol id="like-full" viewBox="0 0 32 32">
        <path fill="#fff" d="M16 25.175l-1.45-1.32C9.4 19.185 6 16.105 6 12.325c0-3.08 2.42-5.5 5.5-5.5 1.74 0 3.41.81 4.5 2.09 1.09-1.28 2.76-2.09 4.5-2.09 3.08 0 5.5 2.42 5.5 5.5 0 3.78-3.4 6.86-8.55 11.54L16 25.175z" />
    </symbol>
    <symbol id="like-with-num" viewBox="0 0 32 32">
        <path fill="#fff" d="M16 25.175l-1.45-1.32C9.4 19.185 6 16.105 6 12.325c0-3.08 2.42-5.5 5.5-5.5 1.74 0 3.41.81 4.5 2.09 1.09-1.28 2.76-2.09 4.5-2.09 3.08 0 5.5 2.42 5.5 5.5 0 3.78-3.4 6.86-8.55 11.54L16 25.175z" />
        <circle cx="23.42" cy="21" r="5" fill="#FF617A" />
        <path fill="#fff" d="M24.263 18.344V24h-1.024v-4.664h-.031l-1.32.844v-.93l1.398-.906h.977z" />
    </symbol>
    <symbol id="like-empty" viewBox="0 0 32 32">
        <g clip-path="url(#a)">
            <path fill="#fff" d="M20.5 6.825c-1.74 0-3.41.81-4.5 2.09-1.09-1.28-2.76-2.09-4.5-2.09-3.08 0-5.5 2.42-5.5 5.5 0 3.78 3.4 6.86 8.55 11.54l1.45 1.31 1.45-1.32c5.15-4.67 8.55-7.75 8.55-11.53 0-3.08-2.42-5.5-5.5-5.5zm-4.4 15.55l-.1.1-.1-.1c-4.76-4.31-7.9-7.16-7.9-10.05 0-2 1.5-3.5 3.5-3.5 1.54 0 3.04.99 3.57 2.36h1.87c.52-1.37 2.02-2.36 3.56-2.36 2 0 3.5 1.5 3.5 3.5 0 2.89-3.14 5.74-7.9 10.05z" />
        </g>
        <defs>
            <clipPath id="a">
                <path fill="#fff" d="M0 0h24v24H0z" transform="translate(4 4)" />
            </clipPath>
        </defs>
    </symbol>
    <symbol id="check" viewBox="0 0 24 24">
        <path d="M8.795 15.875l-4.17-4.17-1.42 1.41 5.59 5.59 12-12-1.41-1.41-10.59 10.58z" />
    </symbol>
    <symbol id="circle-check" viewBox="0 0 24 24">
        <path d="M12 2C6.48 2 2 6.48 2 12s4.48 10 10 10 10-4.48 10-10S17.52 2 12 2zm0 18c-4.41 0-8-3.59-8-8s3.59-8 8-8 8 3.59 8 8-3.59 8-8 8zm4.59-12.42L10 14.17l-2.59-2.58L6 13l4 4 8-8-1.41-1.42z" />
    </symbol>

    <symbol id="mypage-person" viewBox="0 0 24 24">
        <path fill="#fff" d="M12 12C14.21 12 16 10.21 16 8C16 5.79 14.21 4 12 4C9.79 4 8 5.79 8 8C8 10.21 9.79 12 12 12ZM12 14C9.33 14 4 15.34 4 18V20H20V18C20 15.34 14.67 14 12 14Z" />
    </symbol>
    <symbol id="point-paid" viewBox="0 0 24 24">
        <path fill-rule="evenodd" clip-rule="evenodd" d="M12 22C17.5228 22 22 17.5228 22 12C22 6.47715 17.5228 2 12 2C6.47715 2 2 6.47715 2 12C2 17.5228 6.47715 22 12 22ZM8 6V19H10.2201V14.6008H12.611C15.463 14.6008 17 12.8052 17 10.3094C17 7.81354 15.4801 6 12.6452 6H8ZM12.3036 12.6796H10.2201V7.95718H12.3036C13.9772 7.95718 14.7287 8.90884 14.7287 10.3094C14.7287 11.692 13.9772 12.6796 12.3036 12.6796Z"/>
    </symbol>
    <symbol id="search" viewBox="0 0 24 24">
        <path d="M15.755 14.255h-.79l-.28-.27a6.471 6.471 0 0 0 1.57-4.23 6.5 6.5 0 1 0-6.5 6.5c1.61 0 3.09-.59 4.23-1.57l.27.28v.79l5 4.99 1.49-1.49-4.99-5zm-6 0c-2.49 0-4.5-2.01-4.5-4.5s2.01-4.5 4.5-4.5 4.5 2.01 4.5 4.5-2.01 4.5-4.5 4.5z" />
    </symbol>
    <symbol id="star" viewBox="0 0 12 12">
        <path fill="#fff" d="M6 8.885l3.09 1.865-.82-3.515L11 4.87l-3.595-.305L6 1.25 4.595 4.565 1 4.87l2.73 2.365-.82 3.515L6 8.885z" />

    <symbol id="category-bags" viewBox="0 0 60 60">
        <path fill="#757AFF" fill-rule="evenodd" d="M15.145 24.48c-3.374 5.903-8.508 18.817-2.056 23.245 6.452 4.427 23.245 3.426 30.835 2.372 4.375-5.482 10.057-18.28-2.214-25.617h-5.692c1.265-7.59-3.637-13.441-12.493-15.339-7.084-1.518-5.27 9.593-3.478 15.339h-4.902zm18.498.74C22.876 26.288 15.11 10.09 22.876 10.09c2.647 0 10.943 5.873 10.767 15.13z" clip-rule="evenodd" />
        <path fill-rule="evenodd" d="M36.176 23.18c.473-6.255-3.39-11.169-10.241-13.395a24.221 24.221 0 0 0-2.41-.644 6.63 6.63 0 0 0-.649-.107c-3.004-.337-4.184 1.88-4.408 4.896-.213 2.863.435 6.446 1.2 9.25.124.456.251.891.379 1.3h-4.902c-3.374 5.903-8.508 18.817-2.056 23.245 6.452 4.427 23.245 3.426 30.835 2.372 4.375-5.482 10.057-18.28-2.213-25.617h-5.693c.073-.44.126-.873.158-1.3zm1.303 0c.245-3.542-.78-6.739-2.907-9.33-2.406-2.93-6.137-4.986-10.774-5.98-2.117-.454-3.858.01-5.038 1.366-1.08 1.243-1.49 3.02-1.6 4.769-.183 2.91.43 6.398 1.162 9.175H14.39l-.374.655c-1.73 3.028-3.924 7.867-4.859 12.567-.91 4.577-.74 9.693 3.196 12.395 1.825 1.252 4.284 2.063 6.957 2.59 2.694.53 5.712.792 8.732.879 6.04.174 12.21-.347 16.061-.882l.514-.071.323-.405c2.288-2.867 4.95-7.672 5.414-12.807.234-2.59-.09-5.293-1.336-7.862-1.25-2.574-3.385-4.928-6.64-6.875l-.309-.184h-4.59zM25.412 10.982c-.804-.457-1.53-.745-2.1-.849a2.456 2.456 0 0 0-.436-.043c-2.463 0-3.364 1.629-3.102 3.82.385 3.223 3.287 7.664 7.433 9.92.448.243.91.461 1.385.65 1.563.62 3.266.917 5.051.74a13.476 13.476 0 0 0-.004-.74c-.2-6.753-4.884-11.594-8.228-13.498zm6.9 12.982c-.258-3.663-1.955-6.702-3.956-8.907-1.11-1.223-2.293-2.165-3.33-2.793-1.093-.662-1.854-.874-2.15-.874-.745 0-1.143.191-1.358.377-.214.185-.394.491-.461 1.006-.142 1.092.283 2.781 1.371 4.62 1.99 3.363 5.687 6.422 9.884 6.57z" clip-rule="evenodd" />
        <path d="M25.897 36.023l1.265-5.219.949 3.163 2.688-3.953-1.74 4.902h5.693L30.8 37.604l.949 2.53-2.688-1.581-4.112 6.957 1.581-6.957-5.85-2.53h5.218z" />
    </symbol>
    <symbol id="category-hat" viewBox="0 0 60 60">
        <path fill="#ADF369" d="M10.436 35.755L6 44.628c6.76 13.351 34.223 5.563 47.11 0-.775-1.056-2.916-1.986-8.662-6.549-5.746-4.563.634-18.379-5.493-25.561-.845-1.62-5.408-4.521-16.9-3.169-11.492 1.352-12.534 18.168-11.619 26.407z" />
        <path fill-rule="evenodd" d="M34.321 10.444c-2.579-.73-6.503-1.119-12.19-.45-5.36.63-8.36 4.854-9.914 10.158-1.551 5.294-1.586 11.466-1.135 15.531l.022.191-4.374 8.747c1.611 2.965 4.357 4.803 7.849 5.796 3.615 1.03 7.992 1.14 12.61.657 8.818-.92 18.352-3.983 24.772-6.665a9.12 9.12 0 0 0-.12-.093c-.362-.278-.83-.603-1.457-1.036l-.11-.077a108.908 108.908 0 0 1-6.23-4.615c-1.622-1.288-2.343-3.198-2.66-5.322-.303-2.032-.25-4.364-.196-6.707l.006-.293c.056-2.469.097-4.957-.247-7.27-.343-2.307-1.061-4.386-2.486-6.057l-.048-.056-.034-.065c-.301-.577-1.446-1.635-4.058-2.374zm5.174 1.704c-.575-1.026-2.126-2.193-4.82-2.955-2.787-.788-6.89-1.173-12.696-.49-6.132.721-9.398 5.583-11.01 11.084-1.59 5.427-1.641 11.674-1.2 15.848L5.273 44.63l.148.291c1.793 3.541 4.952 5.651 8.803 6.747 3.838 1.092 8.399 1.19 13.102.699 9.408-.983 19.562-4.345 26.042-7.142l.749-.324-.482-.658c-.249-.338-.586-.639-1-.958-.39-.299-.885-.641-1.495-1.064l-.126-.087a107.863 107.863 0 0 1-6.16-4.564c-1.252-.994-1.888-2.522-2.183-4.496-.286-1.918-.235-4.15-.181-6.54l.005-.239c.056-2.453.102-5.05-.26-7.49-.361-2.425-1.132-4.746-2.74-6.657z" clip-rule="evenodd" />
        <path d="M29.808 30.056l1.367-5.69 1.025 3.448 2.906-4.311-1.88 5.346h6.152l-4.272 2.932 1.025 2.759-2.905-1.725-4.444 7.588 1.71-7.588-6.324-2.759h5.64z" />
        <path fill-rule="evenodd" d="M19.245 38.923c-5.383 1.256-8.615-1.57-9.585-3.268l1.129-.645c.72 1.26 3.404 3.757 8.16 2.647l.296 1.266z" clip-rule="evenodd" />
    </symbol>
    <symbol id="category-food" viewBox="0 0 60 60">
        <path fill="#FFAF75" d="M45.486 14.77c-2.93-15.216-15.057-5.856-20.755.726-12.257 4.956-4.574 16.395.799 21.495l-6.37 3.935c-1.196-2.435-4.253-5.722-6.919.61-2.666 6.333 2.88 6.656 5.987 6.026-1.387 2.3 6.813 8.52 9.676 6.044 2.29-1.98-1.068-5.447-3.034-6.933l4.808-7.908c6.49-1.659 18.737-8.78 15.808-23.995z" />
        <path fill-rule="evenodd" d="M30.368 10.976c-1.947 1.536-3.744 3.325-5.146 4.945l-.102.118-.146.059c-2.962 1.198-4.633 2.75-5.463 4.42-.83 1.669-.866 3.553-.362 5.51 1.015 3.944 4.178 7.976 6.828 10.492l.612.58-7.697 4.755-.316-.643a7.52 7.52 0 0 0-1.11-1.674c-.455-.505-.93-.846-1.383-.967-.411-.11-.87-.06-1.398.363-.56.448-1.198 1.317-1.845 2.854-.64 1.52-.745 2.584-.59 3.315.15.7.554 1.169 1.133 1.488.601.33 1.392.498 2.253.536a10.42 10.42 0 0 0 2.463-.202l1.45-.294-.765 1.267c-.057.095-.095.253-.026.526.07.28.241.627.523 1.023.563.79 1.485 1.655 2.559 2.392 1.073.736 2.25 1.31 3.298 1.558 1.069.252 1.858.135 2.34-.283.421-.363.561-.76.545-1.194-.018-.469-.223-1.023-.594-1.626-.74-1.204-2.002-2.385-2.95-3.103l-.47-.354L29.26 38.2l.257-.065c3.148-.805 7.71-2.944 11.114-6.72 3.38-3.749 5.64-9.13 4.216-16.523-.718-3.73-1.974-5.804-3.415-6.823-1.418-1.004-3.157-1.084-5.095-.49-1.947.598-4.016 1.856-5.969 3.397zm11.815-3.968c1.836 1.299 3.194 3.76 3.94 7.638 1.507 7.823-.893 13.61-4.526 17.64-3.518 3.902-8.172 6.138-11.5 7.04l-4.373 7.193c.948.78 2.079 1.9 2.813 3.094.428.697.756 1.474.785 2.259.03.82-.268 1.599-.993 2.226-.949.82-2.258.854-3.489.564-1.25-.294-2.574-.955-3.736-1.751-1.16-.797-2.207-1.763-2.881-2.71-.337-.471-.602-.968-.725-1.459a2.523 2.523 0 0 1-.068-.393 11.31 11.31 0 0 1-1.852.077c-.97-.043-1.98-.234-2.822-.697-.862-.474-1.539-1.235-1.777-2.356-.232-1.091-.03-2.441.663-4.089.686-1.629 1.43-2.724 2.23-3.365.832-.665 1.712-.828 2.548-.604.794.213 1.474.755 2.012 1.353.373.415.7.88.972 1.342l5.077-3.135c-2.598-2.612-5.567-6.546-6.591-10.524-.557-2.16-.551-4.384.457-6.413.994-1.998 2.914-3.712 5.995-4.986 1.431-1.64 3.247-3.44 5.22-4.997 2.016-1.59 4.23-2.955 6.393-3.618 2.172-.666 4.37-.645 6.228.67z" clip-rule="evenodd" />
        <path fill-rule="evenodd" d="M29.717 39.215a12.463 12.463 0 0 1-2.763-1.394l.747-1.064c.346.244 1.349.85 2.442 1.23l-.426 1.228z" clip-rule="evenodd" />
        <path d="M33.966 13.49l.72-3.03.539 1.836L36.753 10l-.989 2.847H39l-2.247 1.561.54 1.47-1.529-.919L33.427 19l.899-4.04L31 13.49h2.966z" />
    </symbol>
    <symbol id="category-clothes" viewBox="0 0 60 60">
        <path fill="#FF617A" d="M10.639 25.14C2.967 19.085 13.835 12.524 20.227 10c7.67 15.208 11.832 6.337 12.953 0 21.265 3.095 17.608 11.384 13.122 15.14 0 0-5.49-1.298-8.58 0-7.605 3.2 13.628 16.15 13.628 16.15-1.85 4.487-9.757 12.349-26.58 7.908-14.9-3.934-8.906-14.931-2.47-21.68-2.474 1.424-6.435 1.749-11.662-2.377z" />
        <path fill-rule="evenodd" d="M22.3 27.518a7.205 7.205 0 0 1-2.54.883c-2.354.352-5.42-.338-9.121-3.26-7.672-6.056 3.196-12.617 9.589-15.14 7.671 15.207 11.832 6.336 12.953 0 21.265 3.095 17.609 11.383 13.122 15.14 0 0-5.49-1.298-8.58 0-7.607 3.198 13.627 16.15 13.627 16.15-1.85 4.486-9.757 12.348-26.58 7.907-13.451-3.551-9.873-12.86-4.316-19.602.578-.7 1.177-1.374 1.78-2.01l.065-.068zm-3.657 2.267a9.818 9.818 0 0 1-1.31-.085c-2.24-.294-4.75-1.368-7.5-3.539-2.127-1.679-3.185-3.58-3.13-5.62.051-1.967 1.134-3.727 2.51-5.187 2.752-2.92 7.278-5.276 10.537-6.563l1.104-.436.535 1.06c1.891 3.75 3.49 5.85 4.761 6.883.624.507 1.114.713 1.476.776.34.06.639.006.937-.149.67-.347 1.38-1.236 2.014-2.646.612-1.36 1.057-2.993 1.324-4.505l.22-1.242 1.248.182c5.388.784 9.294 1.91 12.04 3.264 2.743 1.353 4.442 2.993 5.195 4.857.763 1.889.458 3.76-.293 5.347-.744 1.57-1.953 2.934-3.173 3.956l-.5.418-.633-.15h-.001l-.008-.002-.04-.009a13.97 13.97 0 0 0-.163-.035 25.154 25.154 0 0 0-2.74-.411c-1.733-.16-3.598-.126-4.826.39-.704.297-.806.579-.833.698-.046.204-.012.627.387 1.347.794 1.434 2.566 3.221 4.736 5.033 2.132 1.78 4.508 3.47 6.362 4.723a102.626 102.626 0 0 0 3.093 2.007l.042.026.01.007.003.001.949.579-.424 1.027c-2.126 5.155-10.733 13.256-28.114 8.668-3.87-1.022-6.57-2.549-8.236-4.514-1.698-2.002-2.213-4.326-1.96-6.666.35-3.257 2.188-6.6 4.401-9.49z" clip-rule="evenodd" />
        <path d="M31.527 28.97l3.987 2.196-2.798.095 2.634 3.102-3.622-2.52-1.268 4.732-1.318-3.876-2.28.234 1.892-1.888-4.775-4.943 5.338 2.84 3.373-4.31-1.163 4.338z" />
    </symbol>
    <symbol id="category-jewlery" viewBox="0 0 60 60">
        <path fill="#EF6D44" d="M9.804 31.83c-3.127-4.33 2.53-5.273 5.75-5.203 3.992-.656 3.608 5.851 2.917 9.186-1.586.477-5.54.347-8.667-3.983z" />
        <path fill-rule="evenodd" d="M19.41 29.62c.334 2.073.049 4.622-.304 6.324l-.078.38-.371.111c-1.84.553-6.084.34-9.38-4.225-.833-1.152-1.177-2.209-.985-3.159.195-.96.895-1.613 1.698-2.045 1.56-.841 3.883-1.06 5.519-1.03 1.168-.176 2.1.17 2.763.905.638.705.97 1.707 1.137 2.738zm-2.102-1.868c-.354-.392-.85-.616-1.65-.484l-.059.01-.06-.002c-1.581-.034-3.66.188-4.933.874-.623.336-.952.726-1.04 1.159-.089.442.033 1.127.764 2.14 2.717 3.762 6.028 4.107 7.582 3.828.296-1.604.489-3.748.214-5.45-.15-.93-.427-1.641-.819-2.075z" clip-rule="evenodd" />
        <path fill="#EF6D44" d="M13.003 39.374c-.85-3.935 2.604-3.531 4.438-2.838 1.277.222 4.532 1.688 7.34 5.782 2.807 4.095-3.152 5.392-6.483 5.528-1.41-1.184-4.444-4.536-5.295-8.471z" />
        <path fill="#EF6D44" d="M28.65 53.812c-4.449 1.213-5.294-3.924-5.161-6.644l5.613-3.762c.985 1.035 3.387 3.609 5.113 5.621 2.156 2.516-.003 3.27-5.565 4.785z" />
        <path fill-rule="evenodd" d="M17.615 35.908c1.507.289 4.852 1.887 7.702 6.044.643.938.924 1.83.826 2.655l3.052-2.045.378.396c.988 1.038 3.4 3.621 5.135 5.647.563.656.958 1.32.98 1.999.022.747-.403 1.304-.982 1.72-.565.404-1.366.744-2.328 1.07-.972.331-2.168.667-3.557 1.046-1.235.337-2.292.248-3.165-.19-.863-.435-1.467-1.172-1.884-1.99-.718-1.408-.945-3.18-.946-4.55-1.491.51-3.21.733-4.5.786l-.253.01-.192-.162c-1.466-1.23-4.62-4.698-5.513-8.832-.23-1.059-.193-1.93.121-2.61.325-.705.901-1.108 1.535-1.303.615-.19 1.295-.19 1.914-.11a7.97 7.97 0 0 1 1.677.419zm6.513 11.615c-.022 1.272.179 2.923.802 4.147.334.655.767 1.145 1.31 1.418.533.268 1.25.367 2.24.097 1.391-.379 2.55-.705 3.48-1.021.94-.32 1.588-.61 1.988-.897.387-.277.444-.474.44-.623-.007-.217-.15-.591-.667-1.193-1.524-1.778-3.584-4.002-4.713-5.199l-4.88 3.27zM13.67 37.446c-.152.329-.228.883-.032 1.792.773 3.571 3.468 6.684 4.889 7.947 1.6-.092 3.652-.447 5.002-1.188.709-.389 1.126-.83 1.27-1.298.138-.444.08-1.086-.554-2.012-2.725-3.974-5.837-5.323-6.915-5.51l-.061-.01-.058-.022c-.419-.159-.93-.3-1.44-.366-.518-.067-.993-.052-1.364.062-.353.11-.596.3-.737.605z" clip-rule="evenodd" />
        <path fill="#EF6D44" d="M33.098 47.03c-.739-.94.99-3.55 1.948-4.736 1.818-.512 5.824-.817 7.31 2.056 1.486 2.873-.962 4.681-2.372 5.226-1.987-.457-6.147-1.607-6.886-2.547z" />
        <path fill-rule="evenodd" d="M38.925 41.411c1.533.237 3.136.954 4.008 2.641.858 1.66.59 3.085-.14 4.152-.7 1.02-1.789 1.675-2.574 1.979l-.186.072-.194-.045a45.899 45.899 0 0 1-3.972-1.11 18.46 18.46 0 0 1-1.938-.752c-.523-.246-1.053-.548-1.342-.917-.357-.454-.356-1.026-.27-1.49.09-.48.296-.994.538-1.477.487-.973 1.189-1.962 1.686-2.578l.13-.161.2-.056c.975-.275 2.527-.494 4.054-.258zm-3.503 1.456c-.446.572-1.012 1.394-1.405 2.179-.217.434-.364.823-.422 1.133-.06.327.002.433.014.449.08.102.347.296.874.544.493.232 1.117.468 1.796.696a44.51 44.51 0 0 0 3.65 1.028c.598-.265 1.331-.756 1.79-1.427.474-.69.687-1.606.06-2.82-.614-1.186-1.757-1.753-3.053-1.953-1.204-.187-2.457-.039-3.304.171z" clip-rule="evenodd" />
        <path fill="#EF6D44" d="M37.955 41.784c-3.541-1.425-.54-5.993 1.404-8.099 2.178-.862 8.452 3.27 9.68 5.286 1.23 2.017-6.659 4.595-11.084 2.813z" />
        <path fill-rule="evenodd" d="M47.728 36.672c.809.669 1.5 1.361 1.866 1.96.267.44.285.918.104 1.359-.167.406-.488.75-.85 1.033-.73.57-1.828 1.055-3.054 1.403-2.442.694-5.683.926-8.083-.04-1.044-.42-1.682-1.115-1.93-1.998-.238-.843-.092-1.761.204-2.613.593-1.704 1.896-3.45 2.895-4.532l.1-.109.139-.054c.77-.306 1.765-.14 2.7.164.973.317 2.044.84 3.066 1.444a22.576 22.576 0 0 1 2.843 1.983zm-8.007-2.42c-.922 1.024-2.02 2.547-2.508 3.95-.254.732-.316 1.355-.181 1.835.124.44.438.852 1.164 1.144 2.026.816 4.942.65 7.243-.004 1.146-.326 2.065-.752 2.608-1.177.273-.214.402-.39.448-.503.033-.08.028-.122-.012-.188-.248-.409-.802-.989-1.583-1.635a21.272 21.272 0 0 0-2.676-1.866c-.972-.574-1.954-1.048-2.808-1.327-.789-.256-1.354-.308-1.695-.23z" clip-rule="evenodd" />
        <path fill="#EF6D44" d="M42.806 33.946c-1.976-1.606-.343-5.17.72-6.753 8.456-4.035 7.523 2.996 5.999 7.015-1.416.582-4.742 1.343-6.719-.262z" />
        <path fill-rule="evenodd" d="M51.063 30.942c-.178 1.218-.537 2.458-.93 3.496l-.1.264-.261.107c-.766.315-2.024.67-3.364.737-1.33.066-2.846-.15-4.011-1.096-1.284-1.043-1.316-2.67-1.005-4.034.318-1.39 1.034-2.751 1.595-3.586l.099-.147.16-.077c2.153-1.027 3.823-1.41 5.091-1.228.648.093 1.194.334 1.63.709.432.372.724.85.912 1.372.37 1.026.36 2.28.184 3.483zm-7.094-3.24c1.984-.926 3.32-1.161 4.184-1.037.43.061.737.21.965.407.23.198.41.472.538.828.264.73.284 1.735.12 2.855a15.67 15.67 0 0 1-.76 2.952 9.58 9.58 0 0 1-2.672.54c-1.181.059-2.318-.148-3.128-.807-.692-.562-.833-1.521-.556-2.735.254-1.114.825-2.249 1.309-3.002z" clip-rule="evenodd" />
        <path fill-rule="evenodd" d="M21.084 21.53c-2.95 1.92-5.733 4.323-7.03 5.753l-.963-.873c1.386-1.528 4.259-4.001 7.284-5.97 1.515-.986 3.09-1.86 4.556-2.426 1.443-.557 2.883-.857 4.073-.559 2.477.62 6.69 1.71 10.265 3.068 1.782.676 3.443 1.432 4.657 2.248.606.407 1.13.85 1.5 1.329.373.482.62 1.043.582 1.663l-1.297-.08c.012-.206-.062-.464-.313-.788-.253-.327-.653-.679-1.198-1.045-1.09-.733-2.64-1.447-4.393-2.112-3.495-1.327-7.642-2.403-10.118-3.022-.791-.198-1.916-.02-3.29.51-1.35.522-2.842 1.345-4.315 2.304z" clip-rule="evenodd" />
        <path fill-rule="evenodd" d="M27.91 16.165c-.647-2.502-1.792-5.84-3.26-8.116-.76-1.179-1.687-2.198-2.783-2.56a2.62 2.62 0 0 0-1.78.034c-.592.223-1.147.652-1.669 1.265-1.064 1.249-1.369 2.534-1.031 3.773.323 1.188 1.207 2.22 2.273 3.083 2.056 1.666 5.06 2.923 7.277 3.607l-.049.055-1.284 1.454 1.901-.387c1.913-.39 4.843-1.32 7.456-2.858 2.595-1.528 5.007-3.734 5.641-6.726.079-.37.12-.705.115-1-.005-.291-.056-.589-.202-.847a1.153 1.153 0 0 0-.707-.554 1.633 1.633 0 0 0-.815.01c-.494.118-1.054.417-1.627.796-.586.387-1.24.893-1.927 1.475-2.368 2.003-5.27 5.004-7.53 7.496zm1.394.4c1.548-.479 3.345-1.198 4.997-2.17 2.482-1.462 4.508-3.418 5.03-5.876.066-.311.089-.542.086-.707a.964.964 0 0 0-.016-.17.8.8 0 0 0-.105.02c-.267.063-.672.26-1.213.617-.528.348-1.138.82-1.804 1.382-2.161 1.828-4.808 4.537-6.975 6.904zm-8.76-9.825c-.326.123-.709.39-1.136.891-.835.98-.973 1.833-.767 2.588.22.807.862 1.625 1.837 2.415 1.627 1.318 3.973 2.393 5.965 3.086-.652-2.315-1.665-5.076-2.885-6.966-.726-1.124-1.445-1.815-2.098-2.03a1.317 1.317 0 0 0-.915.016z" clip-rule="evenodd" />
        <path d="M29.364 47.983l2.664 1.466-1.87.064 1.76 2.072-2.42-1.684-.847 3.162-.88-2.59-1.524.157 1.264-1.261-3.19-3.303 3.566 1.897 2.254-2.879-.777 2.899z" />
    </symbol>
    <symbol id="category-makeup" viewBox="0 0 60 60">
        <path fill="#FF3E3E" d="M13.17 6.808c-1.41.953-2.032 5.155-2.166 7.136l7.187 10.642c-1.596 1.52 2.929 5.954 5.39 7.98l-1.41 1.922c-.77 2.07 10.246 13.833 15.85 19.456 9.917-2.713 10.81-8.131 10.018-10.502-4.456-5.752-13.542-17.556-14.233-18.75-.692-1.192-2.085-.482-2.695.022-1.589-1.648-4.881-5.115-5.343-5.8-.462-.683-1.84.09-2.472.563-2.788-4.62-8.716-13.621-10.126-12.669z" />
        <path fill-rule="evenodd" d="M11.668 13.768l7.37 10.91-.398.378c-.118.113-.22.34-.015.913.202.56.642 1.254 1.248 2.012 1.2 1.503 2.91 3.086 4.122 4.084l.475.39-1.687 2.298c.002.024.006.06.015.107.027.136.088.322.196.562.215.48.58 1.094 1.077 1.822.992 1.452 2.453 3.27 4.128 5.216 3.239 3.764 7.227 7.948 10.014 10.756 4.627-1.328 7.078-3.24 8.297-5.019 1.21-1.765 1.242-3.446.944-4.448-2.23-2.878-5.575-7.216-8.46-10.997-1.458-1.91-2.8-3.68-3.82-5.047-1.004-1.345-1.733-2.346-1.93-2.686-.108-.185-.216-.258-.303-.292a.734.734 0 0 0-.399-.02c-.362.065-.762.297-1.017.508l-.464.384-.418-.434a289.51 289.51 0 0 1-3.101-3.269 95.823 95.823 0 0 1-1.453-1.586c-.379-.425-.696-.795-.847-1.013a.336.336 0 0 0-.018-.002c-.077-.006-.215.012-.415.081-.396.138-.838.409-1.123.622l-.575.43-.371-.615c-1.388-2.3-3.556-5.687-5.546-8.373-.998-1.347-1.934-2.494-2.694-3.24-.384-.377-.691-.618-.914-.739a.998.998 0 0 0-.125-.059c-.188.158-.401.455-.615.917-.235.507-.437 1.14-.606 1.826a24.186 24.186 0 0 0-.572 3.623zm1.74-6.38l.01.001h-.01zm-1.742.385c.275-.594.64-1.165 1.14-1.503.5-.337 1.055-.138 1.4.048.382.208.791.549 1.205.954.835.82 1.82 2.033 2.828 3.394 1.861 2.513 3.864 5.612 5.263 7.898.27-.158.575-.31.88-.416.281-.097.614-.175.945-.148.354.028.73.18.98.55.086.128.346.439.753.895.393.442.894.987 1.433 1.565.914.981 1.93 2.05 2.702 2.854.32-.19.708-.364 1.118-.437.339-.06.725-.059 1.103.09.388.152.713.438.952.85.149.256.815 1.177 1.848 2.56a637.821 637.821 0 0 0 3.811 5.036c2.914 3.818 6.298 8.206 8.526 11.081l.067.088.035.104c.462 1.382.404 3.541-1.073 5.696-1.477 2.156-4.335 4.256-9.39 5.64l-.364.1-.267-.269c-2.809-2.818-6.976-7.177-10.348-11.095-1.684-1.957-3.183-3.819-4.215-5.33-.515-.754-.928-1.442-1.19-2.024a3.99 3.99 0 0 1-.285-.842c-.051-.258-.069-.562.038-.85l.032-.085 1.105-1.504c-1.2-1.028-2.716-2.472-3.841-3.88-.634-.795-1.18-1.621-1.455-2.383-.21-.586-.3-1.261-.004-1.837l-7.058-10.45.015-.223c.07-1.018.263-2.602.623-4.065.18-.73.405-1.451.688-2.062z" clip-rule="evenodd" />
        <path d="M34.548 41.253l-4.534-.055 2.43-1.367-3.756-1.454 4.361.502-1.056-4.648 2.948 2.724 1.908-1.248-.804 2.49 6.495 2.054-6.025.012-.999 5.25-.968-4.26z" />
        <path fill-rule="evenodd" d="M15.62 13.299c-1.065 1.3-2.947 1.617-4.248 1.573l.04-1.199c1.18.04 2.575-.274 3.278-1.134.64-.781.92-2.313-.815-5.265l1.035-.608c1.817 3.09 1.838 5.252.71 6.633zm6.776 8.635c.236-.93.277-2.015.239-2.728l1.198-.064c.042.791 0 2.005-.274 3.087-.137.541-.341 1.083-.648 1.527-.31.45-.75.828-1.346.957l-.255-1.173c.219-.047.423-.19.614-.466.195-.283.354-.675.472-1.14zm5.394 10.31a8.967 8.967 0 0 1-4.125 1.278l-.05-1.199a7.77 7.77 0 0 0 3.545-1.1c1.219-.752 2.254-1.941 2.513-3.795l1.188.166c-.317 2.275-1.611 3.75-3.07 4.65z" clip-rule="evenodd" />
    </symbol>
    <symbol id="category-living" viewBox="0 0 60 60">
        <path fill="#9975FF" d="M16.877 8.193c.851-3.972 16.667-1.655 24.468 0 6.028 1.108 4.61 38.652 4.255 42.553-.354 3.9-26.595 3.9-30.142 0-3.546-3.9.355-37.589 1.419-42.553z" />
        <path fill-rule="evenodd" d="M41.472 7.555c-3.92-.83-9.854-1.83-14.93-2.121-2.534-.146-4.896-.119-6.697.21-.9.165-1.702.412-2.324.781-.63.374-1.124.904-1.28 1.631-.542 2.53-1.785 12.23-2.45 21.767-.334 4.773-.524 9.53-.407 13.346.06 1.907.195 3.597.433 4.945.12.674.267 1.277.45 1.785.18.501.407.95.71 1.284.557.612 1.484 1.082 2.567 1.457 1.105.382 2.462.694 3.964.941 3.008.495 6.668.74 10.218.74 3.547 0 7.015-.245 9.635-.743 1.305-.248 2.437-.565 3.27-.967.78-.376 1.538-.944 1.616-1.806.18-1.983.624-12.372.269-22.406-.178-5.016-.556-9.974-1.275-13.76-.358-1.888-.808-3.524-1.38-4.737-.552-1.17-1.31-2.144-2.39-2.347zm-23.288-.011c-.428.253-.615.52-.672.785-.522 2.435-1.76 12.061-2.425 21.584-.332 4.757-.518 9.464-.403 13.216.058 1.878.19 3.498.413 4.759.112.63.243 1.156.393 1.572.152.423.309.694.45.849.329.362.997.745 2.03 1.102 1.01.35 2.288.647 3.75.887 2.92.48 6.507.723 10.006.723 3.501 0 6.881-.242 9.392-.72 1.26-.24 2.264-.531 2.948-.86.736-.356.877-.642.887-.754.174-1.918.617-12.252.263-22.242-.177-4.997-.552-9.876-1.252-13.563-.35-1.848-.776-3.358-1.28-4.426-.52-1.106-1.034-1.546-1.457-1.624l-.009-.002-.008-.002c-3.883-.823-9.752-1.81-14.743-2.096-2.502-.144-4.74-.11-6.388.192-.826.15-1.46.361-1.895.62z" clip-rule="evenodd" />
        <path fill="#9975FF" d="M19.683 22.419c-1.872-1.09-.78-8.632 0-12.267.27-1.363 9.824-1.363 11.228 1.363 1.403 2.726-.468 9.541-1.404 10.904-.935 1.363-7.485 1.363-9.824 0z" />
        <path fill-rule="evenodd" d="M28.806 9.343c1.126.371 2.207.95 2.682 1.874.42.815.57 1.873.577 2.955.007 1.097-.13 2.29-.34 3.424a24.923 24.923 0 0 1-.789 3.129c-.287.879-.602 1.638-.893 2.061-.21.307-.534.518-.856.669a5.498 5.498 0 0 1-1.143.365c-.84.183-1.87.27-2.923.27a18.45 18.45 0 0 1-3.162-.265c-.988-.175-1.923-.448-2.604-.845-.388-.226-.65-.59-.831-.978-.182-.391-.303-.853-.383-1.345-.159-.985-.171-2.197-.102-3.454.139-2.519.613-5.346 1.007-7.184.055-.268.212-.464.365-.597.153-.133.336-.234.516-.312.362-.156.824-.267 1.326-.346 1.014-.158 2.327-.2 3.661-.113 1.334.088 2.726.307 3.892.692zm-8.507 1.035c-.382 1.798-.83 4.506-.962 6.897-.067 1.22-.05 2.324.088 3.174.069.425.164.76.277 1.004.115.247.228.358.307.404.489.285 1.25.523 2.177.688.916.163 1.945.246 2.935.246.993 0 1.923-.083 2.647-.24.362-.08.654-.173.869-.274.224-.105.31-.192.334-.226.177-.258.446-.862.73-1.73.275-.845.546-1.882.746-2.961.2-1.081.325-2.188.318-3.179-.007-1.004-.15-1.82-.433-2.369-.226-.44-.866-.882-1.934-1.235-1.029-.34-2.305-.546-3.569-.629-1.264-.082-2.478-.04-3.375.1-.453.071-.793.162-1.012.256-.068.03-.114.055-.143.074z" clip-rule="evenodd" />
        <path fill="#9975FF" d="M22.573 15.477c-1.968-.742-.82-2.783 0-3.71 1.574-1.113 2.295.463 2.46 1.39 0 1.083-.493 3.062-2.46 2.32z" />
        <path fill-rule="evenodd" d="M24.605 11.404c.49.458.734 1.185.822 1.684l.006.034v.036c0 .578-.128 1.437-.562 2.07a1.81 1.81 0 0 1-.967.734c-.428.13-.92.097-1.472-.111-.563-.213-.95-.538-1.161-.957-.209-.414-.218-.865-.135-1.281.163-.819.706-1.624 1.138-2.112l.03-.034.038-.027c.44-.311.862-.464 1.265-.456.408.008.742.181.998.42zm-1.763.662c.329-.224.574-.286.749-.283a.69.69 0 0 1 .468.206c.297.277.494.782.574 1.204-.006.499-.125 1.15-.422 1.581-.145.212-.322.357-.54.422-.218.067-.525.069-.957-.094-.42-.159-.628-.367-.729-.568-.104-.207-.125-.463-.065-.765.12-.603.541-1.262.922-1.703z" clip-rule="evenodd" />
        <path fill="#9975FF" d="M21.144 19.812c-.722-1.87 1.517-2.47 2.727-2.535 1.832.33 1.138 1.907.562 2.655-.795.739-2.566 1.75-3.289-.12z" />
        <path fill-rule="evenodd" d="M25.454 18.46c-.02.654-.397 1.317-.704 1.716l-.02.026-.025.022c-.423.394-1.133.89-1.874 1.02-.381.067-.794.042-1.175-.171-.382-.214-.68-.587-.885-1.117-.21-.543-.218-1.037-.047-1.468.168-.422.49-.734.846-.959.702-.443 1.641-.617 2.279-.652l.047-.002.046.008c.513.093.907.283 1.169.576a1.4 1.4 0 0 1 .343 1.001zm-1.609-.781c.373.074.567.2.669.313a.6.6 0 0 1 .14.443c-.012.395-.257.879-.518 1.226-.373.34-.932.705-1.444.795-.252.045-.466.019-.646-.082-.178-.1-.372-.301-.529-.706-.15-.392-.133-.675-.05-.884.087-.218.265-.411.53-.578.524-.331 1.28-.49 1.848-.527z" clip-rule="evenodd" />
        <path fill="#9975FF" d="M26.597 16.405c-.568-1.33.957-1.664 1.791-1.666 1.278.297.856 1.37.486 1.87-.523.485-1.71 1.125-2.277-.204z" />
        <path fill-rule="evenodd" d="M29.649 15.59c.01.495-.245.976-.454 1.257l-.022.03-.027.024c-.29.271-.793.614-1.344.683a1.37 1.37 0 0 1-.889-.175c-.289-.173-.518-.458-.684-.847-.17-.398-.204-.774-.087-1.11.116-.332.358-.564.618-.72.505-.305 1.18-.392 1.627-.393h.046l.045.01c.374.087.67.242.875.47.209.233.29.508.296.77zm-1.307-.45c.235.06.355.146.415.213s.09.148.092.254c.005.229-.122.518-.275.734-.231.207-.569.411-.872.45a.571.571 0 0 1-.378-.069c-.11-.065-.242-.199-.36-.475-.113-.266-.102-.43-.066-.531.036-.105.12-.206.275-.3.312-.187.79-.27 1.169-.276z" clip-rule="evenodd" />
        <path d="M28.574 39.905l-8.287-.101 4.44-2.499-6.865-2.658 7.973.917-1.932-8.495 5.39 4.979 3.488-2.282-1.47 4.553 11.873 3.754-11.014.022-1.825 9.598-1.77-7.788z" />
    </symbol>
    <symbol id="category-shoes" viewBox="0 0 60 60">
        <path fill="#75D6FF" d="M28.194 10.834c-10.153-2.068-15.96.191-17.594 1.58-1.01 1.34-1.471 8.814 4.759 27.995s26.247 7.992 35.476 0c.529-2.967.087-10.452-5.913-16.654-5.999-6.202-10.96 3.829-12.69 9.62V26.77c2.884-4.45 6.114-13.869-4.038-15.936z" />
        <path fill-rule="evenodd" d="M11.085 12.855c-.054.09-.127.255-.198.524a7.514 7.514 0 0 0-.198 1.324c-.084 1.134-.045 2.75.22 4.94.53 4.378 1.96 10.999 5.068 20.565 1.519 4.677 3.846 7.416 6.558 8.841 2.721 1.432 5.93 1.593 9.308.913 6.69-1.35 13.803-5.96 18.388-9.891.438-2.948-.097-9.993-5.776-15.864-1.406-1.454-2.651-1.862-3.727-1.735-1.11.132-2.214.855-3.269 2.03-2.11 2.35-3.75 6.196-4.605 9.058l-1.273-.186v-6.796l.105-.162c1.409-2.174 2.86-5.508 2.766-8.487-.047-1.471-.47-2.827-1.43-3.933-.962-1.108-2.52-2.03-4.958-2.526-5.008-1.02-8.918-.967-11.757-.501-2.773.455-4.488 1.297-5.222 1.886zm5.012-3.169c3.01-.494 7.08-.537 12.226.51 2.639.538 4.483 1.57 5.68 2.948 1.2 1.38 1.694 3.045 1.748 4.743.104 3.28-1.424 6.79-2.87 9.073v2.71c.922-2.167 2.146-4.406 3.611-6.037 1.152-1.282 2.522-2.266 4.083-2.451 1.596-.19 3.22.473 4.814 2.12 6.17 6.38 6.644 14.087 6.086 17.22l-.04.227-.175.151c-4.651 4.028-12.064 8.905-19.16 10.336-3.56.718-7.099.58-10.17-1.036-3.083-1.621-5.594-4.677-7.19-9.59-3.123-9.615-4.577-16.322-5.121-20.811-.272-2.244-.318-3.948-.226-5.192a8.79 8.79 0 0 1 .237-1.558c.107-.41.252-.765.45-1.027l.044-.058.055-.047c.939-.797 2.926-1.74 5.918-2.231z" clip-rule="evenodd" />
        <path fill-rule="evenodd" d="M28.485 28.533c-2.154.48-4.501.602-5.94.388l.192-1.285c1.239.184 3.42.084 5.465-.372 1.017-.227 1.97-.536 2.74-.923.78-.393 1.302-.832 1.552-1.282l1.137.63c-.433.78-1.221 1.369-2.105 1.814-.895.45-1.959.788-3.041 1.03zm2.67 6.532c.327-1.73.874-3.588 1.28-4.775l1.23.42c-.392 1.148-.92 2.945-1.232 4.596-.156.827-.253 1.595-.258 2.215-.002.31.019.566.06.766.042.205.097.31.132.356l-1.026.798c-.204-.262-.316-.581-.38-.893a5.047 5.047 0 0 1-.086-1.036c.006-.732.118-1.585.28-2.447zm2.686-5.679c-.18-.34-.281-.714-.21-1.066l1.275.26.003-.02s.002.068.08.216c.098.183.292.445.652.77.72.648 2.037 1.49 4.325 2.4l-.481 1.208c-2.369-.943-3.84-1.854-4.715-2.643-.438-.395-.742-.773-.929-1.125zm2.709-4.568c-.026-.03-.024-.029-.023-.028l.955-.882.048.055c.048.055.097.113.216.212.158.131.433.326.9.56.936.473 2.626 1.099 5.649 1.71l-.258 1.274c-3.089-.624-4.9-1.28-5.977-1.822-.54-.273-.9-.52-1.146-.723a3.063 3.063 0 0 1-.363-.356z" clip-rule="evenodd" />
        <path fill-rule="evenodd" d="M36.116 31.075c-.107-1.897-.475-3.924-.782-5.207l1.264-.303c.32 1.337.703 3.443.816 5.436.056.996.046 1.986-.083 2.848-.125.841-.377 1.66-.886 2.215l-.958-.878c.243-.265.445-.768.559-1.529.11-.74.123-1.633.07-2.582zm3.947-4.819c-.13-1.608-.579-3.335-.954-4.43l1.23-.42c.399 1.163.879 3 1.02 4.745.07.872.058 1.753-.107 2.529-.165.77-.498 1.51-1.134 1.995l-.788-1.035c.293-.222.52-.621.65-1.232.13-.605.148-1.348.083-2.152z" clip-rule="evenodd" />
        <path fill-rule="evenodd" d="M47.275 27.436a3.82 3.82 0 0 1 .36-.471l.92.92-.005.006a4.89 4.89 0 0 0-.201.278c-.13.19-.3.454-.487.777a15.202 15.202 0 0 0-1.161 2.496c-.705 1.99-.966 4.253.227 6.043l.207.31-.163.335c-1.663 3.416-6.242 7.295-12.042 8.888-5.85 1.606-12.982.9-19.718-4.923l.85-.983c6.384 5.52 13.061 6.152 18.523 4.652 5.322-1.46 9.455-4.934 11.056-7.889-1.294-2.24-.878-4.855-.166-6.866a16.502 16.502 0 0 1 1.8-3.573z" clip-rule="evenodd" />
        <path d="M32.465 17.413l2.205 1.214-1.547.053 1.457 1.715L32.577 19l-.702 2.617-.729-2.143-1.26.13 1.046-1.045-2.641-2.733 2.952 1.57 1.865-2.383-.642 2.399z" />
    </symbol>
    <symbol id="close" viewBox="0 0 24 24">
        <path d="M19 6.41L17.59 5L12 10.59L6.41 5L5 6.41L10.59 12L5 17.59L6.41 19L12 13.41L17.59 19L19 17.59L13.41 12L19 6.41Z"/>
    </symbol>
    <symbol id="baseline-apple" viewBox="0 0 15 19">
        <path d="M12.4979 17.7778C11.5287 18.7277 10.4705 18.5777 9.4518 18.1278C8.37381 17.6678 7.38482 17.6478 6.24749 18.1278C4.82335 18.7477 4.07173 18.5677 3.2212 17.7778C-1.60504 12.7485 -0.892975 5.08942 4.586 4.80946C5.92113 4.87945 6.85077 5.54936 7.63207 5.60935C8.79907 5.36939 9.91662 4.67947 11.1627 4.76946C12.6561 4.88945 13.7836 5.48937 14.5253 6.56923C11.4397 8.439 12.1715 12.5485 15 13.6983C14.4363 15.1981 13.7044 16.688 12.488 17.7878L12.4979 17.7778ZM7.53317 4.74946C7.38482 2.51975 9.17488 0.679977 11.232 0.5C11.5188 3.07967 8.91775 4.99943 7.53317 4.74946Z"/>
    </symbol>
    <symbol id="custom-like" viewBox="0 0 40 40">
        <path d="M7.01252 12.5665C7.36876 3.05285 15.6711 10.5845 19.7778 15.5395C20.6684 13.3215 24.112 9.62182 30.7618 12.5665C37.4116 15.5111 24.8245 27.1956 17.6997 32.6697C13.9889 29.9327 6.65628 22.0801 7.01252 12.5665Z" fill="#FF617A" stroke="#272A31" stroke-width="1.8621"/>
        <path d="M19.3198 22.0161C19.023 20.0812 18.9273 16.9195 20.062 14.7959" stroke="#272A31" stroke-width="1.8621"/>
    </symbol>
    <svg id="photo" viewBox="0 0 32 32">
        <path d="M16 20C17.6569 20 19 18.6569 19 17C19 15.3431 17.6569 14 16 14C14.3431 14 13 15.3431 13 17C13 18.6569 14.3431 20 16 20Z" />
        <path d="M24 9H20.83L19.59 7.65C19.22 7.24 18.68 7 18.12 7H13.88C13.32 7 12.78 7.24 12.4 7.65L11.17 9H8C6.9 9 6 9.9 6 11V23C6 24.1 6.9 25 8 25H24C25.1 25 26 24.1 26 23V11C26 9.9 25.1 9 24 9ZM16 22C13.24 22 11 19.76 11 17C11 14.24 13.24 12 16 12C18.76 12 21 14.24 21 17C21 19.76 18.76 22 16 22Z"/>
    </svg>
    <svg id="plus" viewBox="0 0 32 32">
        <path d="M17 11H15V15H11V17H15V21H17V17H21V15H17V11ZM16 6C10.49 6 6 10.49 6 16C6 21.51 10.49 26 16 26C21.51 26 26 21.51 26 16C26 10.49 21.51 6 16 6ZM16 24C11.59 24 8 20.41 8 16C8 11.59 11.59 8 16 8C20.41 8 24 11.59 24 16C24 20.41 20.41 24 16 24Z" />
    </svg>
    <symbol id="max" viewBox="0 0 25 24">
        <g filter="url(#filter0_d_1205_237)">
            <path d="M14.8478 6L16.4478 7.6L14.4374 9.59652L15.4252 10.5843L17.4217 8.57391L19.0217 10.1739V6H14.8478ZM6.5 10.1739L8.1 8.57391L10.0965 10.5843L11.0843 9.59652L9.07391 7.6L10.6739 6H6.5V10.1739ZM10.6739 18.5217L9.07391 16.9217L11.0843 14.9252L10.0965 13.9374L8.1 15.9478L6.5 14.3478V18.5217H10.6739ZM19.0217 14.3478L17.4217 15.9478L15.4252 13.9374L14.4374 14.9252L16.4478 16.9217L14.8478 18.5217H19.0217V14.3478Z" fill="white"/>
        </g>
        <defs>
            <filter id="filter0_d_1205_237" x="5.1" y="4.6" width="15.322" height="15.322" filterUnits="userSpaceOnUse" color-interpolation-filters="sRGB">
            <feFlood flood-opacity="0" result="BackgroundImageFix"/>
            <feColorMatrix in="SourceAlpha" type="matrix" values="0 0 0 0 0 0 0 0 0 0 0 0 0 0 0 0 0 0 127 0" result="hardAlpha"/>
            <feOffset/>
            <feGaussianBlur stdDeviation="0.7"/>
            <feComposite in2="hardAlpha" operator="out"/>
            <feColorMatrix type="matrix" values="0 0 0 0 0 0 0 0 0 0 0 0 0 0 0 0 0 0 0.15 0"/>
            <feBlend mode="normal" in2="BackgroundImageFix" result="effect1_dropShadow_1205_237"/>
            <feBlend mode="normal" in="SourceGraphic" in2="effect1_dropShadow_1205_237" result="shape"/>
            </filter>
        </defs>
    </symbol>
    <symbol id='circle-cancel' viewBox="0 0 24 24">
        <circle cx="12" cy="12" r="10" fill="#17181A"/>
        <path d="M17 8.00714L15.9929 7L12 10.9929L8.00714 7L7 8.00714L10.9929 12L7 15.9929L8.00714 17L12 13.0071L15.9929 17L17 15.9929L13.0071 12L17 8.00714Z" fill="white"/>
    </symbol>
</svg>
