<svg xmlns="http://www.w3.org/2000/svg">
    <symbol id="app-logo" viewBox="0 0 120 35">
        <path d="M59.596 29.523l2.762-1.822L69.99 4.876l8.449 22.96 2.466 1.687H71.96l3.223-1.788-1.809-5.533h-7.629l-1.809 5.5 3.19 1.821h-7.53zm6.675-8.906h6.61l-3.288-10.02-3.322 10.02zm-30.891-.57c0 3.292 0 6.281.065 9.237h2.587c5.043 0 7.859-3.527 7.859-9.64 0-6.315-2.816-9.74-7.564-9.74h-2.882c-.066 2.922-.066 5.911-.066 8.9v1.243zM29.19 8.358h9.66c6.288 0 10.61 3.997 10.61 11.286 0 7.255-4.846 11.219-11.232 11.219H29.19l3.013-1.747c.066-2.855.066-5.81.066-9.069v-1.243c0-2.888 0-5.81-.066-8.699L29.19 8.358zm62.63-1.339h9.265l-3.012 1.746c-.066 2.889-.066 5.81-.066 8.7v2.317c0 2.385 0 5.206.066 8.061h7.431l2.947-4.635-.327 6.315H91.819l3.012-1.747c.066-2.889.066-5.777.066-8.632v-1.68c0-2.922 0-5.844-.066-8.699L91.82 7.02z" />
        <path fill="#FF617A" d="M20.483 5.383c-7.126-1.604-2.956 5.111-1.11 12.794-1.085 4.233-12.51 7.717 1.11 11.8 11.512 3.453 14.744-3.858 13.73-10.466-.47-3.34-4.824-12.124-13.73-14.128z" />
        <path fill="#17181A" fill-rule="evenodd" d="M18.234 4.16c.702-.056 1.525.035 2.468.247 4.735 1.066 8.233 3.928 10.594 6.92 2.341 2.965 3.639 6.154 3.906 8.039.53 3.464-.017 7.308-2.433 9.841-2.48 2.6-6.62 3.513-12.574 1.728-3.408-1.022-5.51-2.07-6.544-3.279-.555-.649-.827-1.372-.79-2.14.037-.732.35-1.386.724-1.942.578-.856 1.485-1.718 2.304-2.496.203-.192.4-.38.587-.562.938-.914 1.6-1.68 1.86-2.37-.413-1.666-.932-3.286-1.42-4.808l-.103-.322c-.532-1.665-1.032-3.253-1.237-4.564-.194-1.232-.206-2.666.799-3.57.502-.452 1.15-.665 1.859-.722zm1.14 14.017c-.329 1.28-1.602 2.491-2.842 3.671-2.863 2.723-5.55 5.28 3.95 8.13 11.513 3.451 14.745-3.86 13.73-10.467-.47-3.34-4.823-12.124-13.73-14.129-5.458-1.228-4.287 2.426-2.611 7.658.512 1.597 1.07 3.34 1.502 5.137z" clip-rule="evenodd" />
        <path fill="#75D6FF" d="M78.265 6.511c-6.85 2.563-2.408 10.491 1.635 15.697-6.981 9.145 7.007 7.524 13.556 6.92 2.676-3.064 3.772-7.25.063-10.593-3.709-3.342-5.348 1.675-6.112 4.045 1.16 1.435 1.518 4.496-1.581 4.987-4.04.64-1.357-10.035.49-15.452.777-2.25 3.291-9.847-8.051-5.604z" />
        <path fill="#17181A" fill-rule="evenodd" d="M86.29 22.794l.181-.565c.369-1.142 1.02-3.164 2.13-4.461.585-.684 1.396-1.285 2.458-1.343 1.053-.057 2.1.435 3.131 1.365 2.068 1.864 2.858 4.042 2.688 6.219-.167 2.128-1.241 4.138-2.672 5.775l-.265.304-.4.037-.703.065c-1.512.143-3.352.316-5.207.398-2.144.095-4.382.073-6.222-.28-1.757-.338-3.555-1.058-4.19-2.71-.58-1.508-.007-3.312 1.433-5.37-1.904-2.533-3.87-5.678-4.622-8.603-.41-1.59-.49-3.224.107-4.685.61-1.497 1.864-2.647 3.783-3.365 2.888-1.08 5.034-1.465 6.614-1.289 1.662.186 2.722 1.005 3.223 2.2.458 1.092.386 2.352.208 3.374-.182 1.047-.509 2.01-.704 2.576-.913 2.679-2.021 6.626-2.406 9.792-.195 1.608-.186 2.881.043 3.673.112.386.246.551.33.617.054.042.163.106.448.06.61-.096.963-.303 1.169-.506a1.35 1.35 0 0 0 .38-.788c.106-.691-.167-1.54-.597-2.07l-.339-.42zm.026-10.678c.777-2.251 3.291-9.847-8.051-5.604-6.85 2.563-2.408 10.491 1.635 15.697-6.739 8.827 6.06 7.624 12.847 6.985l.709-.066c2.675-3.063 3.772-7.25.063-10.592-3.709-3.343-5.348 1.675-6.113 4.045 1.161 1.435 1.519 4.495-1.58 4.986-4.04.64-1.357-10.034.49-15.451z" clip-rule="evenodd" />
        <path fill="#17181A" d="M30.068 22.798l-1.59-.598 1.56-.193-1.482-1.985 1.584 1.504.668-3.108.725 2.283 1.632.765-1.195.478-.038 3.083-.953-1.741-1.337 1.499.426-1.987z" />
        <path fill="#fff" d="M33.264 9.513c-1.252-.43-2.05-1.703-2.363-2.833-.195-.7.681-1.27 1.274-1.691.33-.234.7-.618 1.089-1.236 1.27-2.014 1.645.43 2.225 2.436.07.245.057.505-.013.75-.334 1.162-.54 3.15-2.212 2.574z" />
        <path fill="#17181A" fill-rule="evenodd" d="M32.94 10.46c-1.692-.582-2.644-2.222-3.002-3.513-.241-.868.234-1.542.58-1.907.314-.33.72-.614.987-.802l.092-.064c.197-.14.483-.416.822-.954a3.75 3.75 0 0 1 .606-.76c.219-.2.533-.411.94-.453a1.4 1.4 0 0 1 1.057.341c.23.196.388.44.497.645.217.41.382.933.519 1.412.065.231.13.473.193.708l.014.054a50 50 0 0 0 .205.745l-.96.277a42.88 42.88 0 0 1-.225-.816c-.472-1.764-.9-3.365-2-1.62-.39.618-.76 1.002-1.09 1.236l-.097.07c-.586.412-1.36.958-1.177 1.62.314 1.131 1.112 2.404 2.363 2.835 1.444.496 1.794-.916 2.078-2.06.045-.18.089-.356.134-.515.07-.244.084-.505.013-.75l.961-.277c.133.46.099.915-.013 1.304-.047.165-.08.298-.117.45-.034.14-.072.296-.13.508-.097.359-.23.785-.434 1.172-.204.385-.529.822-1.057 1.074-.554.264-1.161.245-1.76.04z" clip-rule="evenodd" />
        <path fill="#fff" d="M11.286 19.673c-.832 0 .347-3.394 1.04-5.09 1.948-3.885 3.508 1.339 3.378 3.214-.13 1.876-3.379 1.876-4.418 1.876z" />
        <path fill="#17181A" fill-rule="evenodd" d="M15.992 15.846c.165.72.248 1.45.21 1.986-.043.633-.358 1.108-.79 1.444-.418.325-.945.523-1.457.648-1.017.249-2.137.249-2.657.249h-.012a.73.73 0 0 1-.673-.434c-.097-.2-.115-.432-.113-.63.005-.408.11-.934.25-1.472.285-1.09.762-2.385 1.113-3.244l.007-.018.009-.017c.257-.512.523-.908.806-1.186.284-.28.611-.465.976-.489.369-.024.687.122.94.327.247.2.453.474.625.767.343.587.601 1.348.766 2.07zm-3.211-1.056c.227-.45.432-.735.605-.905.174-.171.287-.2.34-.204.05-.003.128.011.244.105.121.098.255.262.393.496.274.468.503 1.122.654 1.787.153.666.216 1.292.188 1.694-.021.304-.16.532-.407.724-.26.203-.635.357-1.08.466-.783.19-1.66.216-2.218.22v-.05c.004-.282.081-.71.218-1.233.267-1.023.721-2.262 1.063-3.1z" clip-rule="evenodd" />
        <path fill="#fff" d="M102.847 9.43c1.351 0 2.942-.517 4.345-1.168.678-.314 1.499.08 1.619.818l.385 2.383c.012.074.017.147.012.221-.122 1.849-1.179 4.977-4.542 3.506-4.288-1.875-3.017-5.76-1.819-5.76z" />
        <path fill="#17181A" fill-rule="evenodd" d="M108.317 9.16c-.061-.382-.509-.632-.915-.444-1.427.661-3.096 1.214-4.555 1.214-.028 0-.2.046-.388.38-.171.306-.289.754-.26 1.268.056.995.674 2.282 2.668 3.154.773.338 1.363.39 1.812.3.444-.089.8-.328 1.091-.673.601-.712.881-1.832.939-2.708a.466.466 0 0 0-.007-.108l-.385-2.384zm-1.335-1.351c.951-.441 2.145.096 2.322 1.19l.386 2.384c.017.106.024.217.017.334-.065.972-.374 2.34-1.173 3.287-.409.485-.955.867-1.658 1.009-.7.14-1.502.032-2.41-.365-2.295-1.003-3.185-2.596-3.266-4.013-.039-.69.117-1.33.387-1.813.254-.453.69-.892 1.26-.892 1.244 0 2.755-.482 4.135-1.121z" clip-rule="evenodd" />
        <path fill="#C1F78D" d="M49.377 29.282c2.668 3.584 7.093.084 8.834-1.33 1.749 1.233 4.092 1.586 6.685-.645.486-.418.781-.75 1.373-2.58.926-2.865-3.845-10.06-5.34-13.98-2.811-7.368-11.592-6.822-14.163-1.177-1.688 3.706-1.435 6.52.545 11.09 2.475 5.711.179 6.088 2.066 8.622z" />
        <path fill="#17181A" fill-rule="evenodd" d="M57.803 28.28c-1.949 1.545-5.947 4.333-8.427 1.002-.873-1.172-.85-1.883-.82-2.873.037-1.151.084-2.68-1.245-5.75-1.98-4.569-2.233-7.383-.545-11.09 2.57-5.644 11.351-6.19 14.162 1.178.471 1.235 1.267 2.794 2.108 4.441 1.828 3.582 3.867 7.576 3.232 9.54-.591 1.828-.887 2.16-1.373 2.579-2.593 2.231-4.936 1.879-6.685.646-.123.1-.259.21-.407.327zm.467.899c-.925.724-2.305 1.71-3.8 2.255-.93.34-1.977.535-3.027.337-1.078-.203-2.064-.803-2.867-1.88-.542-.728-.828-1.365-.95-2.027-.097-.525-.08-1.044-.065-1.494l.006-.22c.026-.991.004-2.367-1.17-5.08-1.01-2.328-1.62-4.299-1.73-6.209-.11-1.934.296-3.73 1.194-5.7 2.949-6.476 12.88-6.957 15.998 1.216.353.925.91 2.067 1.554 3.34l.506.994c.495.97 1.013 1.985 1.487 2.978.638 1.336 1.22 2.682 1.584 3.896.349 1.169.558 2.413.226 3.442-.3.93-.549 1.553-.812 2.012a3.643 3.643 0 0 1-.867 1.027c-1.436 1.236-2.883 1.82-4.281 1.866-1.109.036-2.114-.27-2.986-.753z" clip-rule="evenodd" />
        <path fill="#17181A" d="M55.534 13.767l1.589-2.371-.415 1.76 1.658-1.15-1.243 1.76 1.796.881-1.796.542v1.423l-1.037-1.423c-.506.7-1.575 2.14-1.796 2.303-.221.163.276-2.055.553-3.184l-1.106-.541h1.797z" />
        <path fill="#17181A" fill-rule="evenodd" d="M56.266 26.919c-.6-1.117-.99-2.38-1.166-3.21l.978-.208c.162.76.523 1.93 1.068 2.944.563 1.046 1.239 1.773 1.963 1.917l-.194.98c-1.2-.237-2.066-1.339-2.65-2.423z" clip-rule="evenodd" />
    </symbol>
    <symbol id="direction-left" viewBox="0 0 24 24">
        <path d="M17.885 3.77L16.115 2l-10 10 10 10 1.77-1.77L9.655 12l8.23-8.23z" />
    </symbol>
    <symbol id="direction-right" viewBox="0 0 24 24">
        <path d="M6.115 20.23L7.885 22l10-10-10-10-1.77 1.77 8.23 8.23-8.23 8.23z" />
    </symbol>
    <symbol id="home" viewBox="0 0 32 32" fill="none">
        <path fill-rule="evenodd" clip-rule="evenodd" d="M16 6L7 13.5V26H13V18.5H19V26H25V13.5L16 6Z" fill="white"/>
    </symbol>
    <symbol id="kakaoTalk" viewBox="0 0 22 20" fill="none">
        <path d="M10.999 0.5C16.799 0.5 21.5 4.10725 21.5 8.55823C21.5 13.0082 16.799 16.6155 11 16.6155C10.4226 16.6157 9.84572 16.5796 9.273 16.5072L4.865 19.3455C4.364 19.6064 4.187 19.5779 4.393 18.9389L5.285 15.3179C2.405 13.8805 0.5 11.3897 0.5 8.55823C0.5 4.10824 5.2 0.5 11 0.5H10.999ZM16.907 8.43516L18.377 7.03322C18.4618 6.94649 18.5091 6.83074 18.509 6.71034C18.5089 6.58995 18.4612 6.47431 18.3762 6.38778C18.2912 6.30126 18.1753 6.2506 18.0531 6.24649C17.9309 6.24237 17.8118 6.28512 17.721 6.36572L15.793 8.20282V6.6847C15.793 6.56146 15.7433 6.44326 15.6548 6.35612C15.5662 6.26897 15.4462 6.22001 15.321 6.22001C15.1958 6.22001 15.0758 6.26897 14.9872 6.35612C14.8987 6.44326 14.849 6.56146 14.849 6.6847V9.2021C14.8314 9.27392 14.8314 9.34884 14.849 9.42066V10.8374C14.849 10.9606 14.8987 11.0788 14.9872 11.166C15.0758 11.2531 15.1958 11.3021 15.321 11.3021C15.4462 11.3021 15.5662 11.2531 15.6548 11.166C15.7433 11.0788 15.793 10.9606 15.793 10.8374V9.49548L16.22 9.08888L17.648 11.0904C17.6837 11.1404 17.729 11.1829 17.7813 11.2157C17.8337 11.2484 17.8921 11.2707 17.9532 11.2812C18.0143 11.2917 18.0769 11.2902 18.1374 11.2769C18.198 11.2636 18.2552 11.2387 18.306 11.2036C18.3568 11.1685 18.4 11.1239 18.4332 11.0724C18.4665 11.0208 18.4891 10.9633 18.4998 10.9032C18.5105 10.843 18.509 10.7814 18.4955 10.7218C18.482 10.6622 18.4567 10.6058 18.421 10.5558L16.907 8.43418V8.43516ZM13.949 10.3294H12.489V6.69947C12.4834 6.58006 12.4313 6.46735 12.3435 6.38479C12.2557 6.30223 12.1389 6.25616 12.0175 6.25616C11.8961 6.25616 11.7793 6.30223 11.6915 6.38479C11.6037 6.46735 11.5516 6.58006 11.546 6.69947V10.7941C11.546 11.05 11.756 11.2587 12.017 11.2587H13.949C14.0742 11.2587 14.1942 11.2098 14.2828 11.1226C14.3713 11.0355 14.421 10.9173 14.421 10.7941C14.421 10.6708 14.3713 10.5526 14.2828 10.4655C14.1942 10.3783 14.0742 10.3294 13.949 10.3294ZM8.092 9.25526L8.788 7.57372L9.426 9.25428L8.092 9.25526ZM10.615 9.73472L10.617 9.71897C10.6168 9.6019 10.5714 9.48929 10.49 9.40392L9.444 6.64729C9.40015 6.51593 9.31663 6.40086 9.20459 6.31747C9.09255 6.23409 8.95733 6.18635 8.817 6.18063C8.67564 6.18002 8.53744 6.2218 8.42079 6.30041C8.30414 6.37903 8.21457 6.49075 8.164 6.62071L6.502 10.6326C6.45466 10.7467 6.4553 10.8746 6.50378 10.9883C6.55225 11.1019 6.6446 11.192 6.7605 11.2386C6.8764 11.2852 7.00636 11.2845 7.12179 11.2368C7.23722 11.1891 7.32866 11.0982 7.376 10.9841L7.708 10.1837H9.778L10.076 10.9713C10.0963 11.0301 10.1285 11.0844 10.1705 11.1308C10.2125 11.1772 10.2635 11.2149 10.3206 11.2416C10.3777 11.2682 10.4396 11.2833 10.5027 11.286C10.5658 11.2886 10.6288 11.2788 10.688 11.257C10.7471 11.2353 10.8013 11.2021 10.8472 11.1594C10.8931 11.1166 10.9298 11.0653 10.9551 11.0083C10.9805 10.9514 10.994 10.89 10.9948 10.8278C10.9957 10.7657 10.9838 10.704 10.96 10.6464L10.615 9.73472ZM7.293 6.70439C7.293 6.58132 7.24341 6.46327 7.15511 6.37615C7.06681 6.28904 6.94701 6.23996 6.822 6.2397H3.577C3.45182 6.2397 3.33176 6.28866 3.24325 6.37581C3.15473 6.46295 3.105 6.58115 3.105 6.70439C3.105 6.82764 3.15473 6.94583 3.24325 7.03298C3.33176 7.12012 3.45182 7.16908 3.577 7.16908H4.737V10.8472C4.737 10.9705 4.78673 11.0887 4.87525 11.1758C4.96376 11.2629 5.08382 11.3119 5.209 11.3119C5.33418 11.3119 5.45424 11.2629 5.54275 11.1758C5.63127 11.0887 5.681 10.9705 5.681 10.8472V7.16908H6.821C6.94618 7.16908 7.06624 7.12012 7.15475 7.03298C7.24327 6.94583 7.293 6.82764 7.293 6.70439Z" fill="#17181A"/>
    </symbol>
    <symbol id="like-full" viewBox="0 0 32 32">
        <path fill="#fff" d="M16 25.175l-1.45-1.32C9.4 19.185 6 16.105 6 12.325c0-3.08 2.42-5.5 5.5-5.5 1.74 0 3.41.81 4.5 2.09 1.09-1.28 2.76-2.09 4.5-2.09 3.08 0 5.5 2.42 5.5 5.5 0 3.78-3.4 6.86-8.55 11.54L16 25.175z" />
    </symbol>
    <symbol id="like-with-num" viewBox="0 0 32 32">
        <path fill="#fff" d="M16 25.175l-1.45-1.32C9.4 19.185 6 16.105 6 12.325c0-3.08 2.42-5.5 5.5-5.5 1.74 0 3.41.81 4.5 2.09 1.09-1.28 2.76-2.09 4.5-2.09 3.08 0 5.5 2.42 5.5 5.5 0 3.78-3.4 6.86-8.55 11.54L16 25.175z" />
        <circle cx="23.42" cy="21" r="5" fill="#FF617A" />
        <path fill="#fff" d="M24.263 18.344V24h-1.024v-4.664h-.031l-1.32.844v-.93l1.398-.906h.977z" />
    </symbol>
    <symbol id="like-empty" viewBox="0 0 32 32">
        <g clip-path="url(#a)">
            <path fill="#fff" d="M20.5 6.825c-1.74 0-3.41.81-4.5 2.09-1.09-1.28-2.76-2.09-4.5-2.09-3.08 0-5.5 2.42-5.5 5.5 0 3.78 3.4 6.86 8.55 11.54l1.45 1.31 1.45-1.32c5.15-4.67 8.55-7.75 8.55-11.53 0-3.08-2.42-5.5-5.5-5.5zm-4.4 15.55l-.1.1-.1-.1c-4.76-4.31-7.9-7.16-7.9-10.05 0-2 1.5-3.5 3.5-3.5 1.54 0 3.04.99 3.57 2.36h1.87c.52-1.37 2.02-2.36 3.56-2.36 2 0 3.5 1.5 3.5 3.5 0 2.89-3.14 5.74-7.9 10.05z" />
        </g>
        <defs>
            <clipPath id="a">
                <path fill="#fff" d="M0 0h24v24H0z" transform="translate(4 4)" />
            </clipPath>
        </defs>
    </symbol>
    <symbol id="check" viewBox="0 0 24 24">
        <path d="M8.795 15.875l-4.17-4.17-1.42 1.41 5.59 5.59 12-12-1.41-1.41-10.59 10.58z" />
    </symbol>
    <symbol id="circle-check" viewBox="0 0 24 24">
        <path d="M12 2C6.48 2 2 6.48 2 12s4.48 10 10 10 10-4.48 10-10S17.52 2 12 2zm0 18c-4.41 0-8-3.59-8-8s3.59-8 8-8 8 3.59 8 8-3.59 8-8 8zm4.59-12.42L10 14.17l-2.59-2.58L6 13l4 4 8-8-1.41-1.42z" />
    </symbol>

    <symbol id="mypage-person" viewBox="0 0 24 24">
        <path fill="#fff" d="M12 12C14.21 12 16 10.21 16 8C16 5.79 14.21 4 12 4C9.79 4 8 5.79 8 8C8 10.21 9.79 12 12 12ZM12 14C9.33 14 4 15.34 4 18V20H20V18C20 15.34 14.67 14 12 14Z" />
    </symbol>
    <symbol id="point-paid" viewBox="0 0 24 24">
        <path fill-rule="evenodd" clip-rule="evenodd" d="M12 22C17.5228 22 22 17.5228 22 12C22 6.47715 17.5228 2 12 2C6.47715 2 2 6.47715 2 12C2 17.5228 6.47715 22 12 22ZM8 6V19H10.2201V14.6008H12.611C15.463 14.6008 17 12.8052 17 10.3094C17 7.81354 15.4801 6 12.6452 6H8ZM12.3036 12.6796H10.2201V7.95718H12.3036C13.9772 7.95718 14.7287 8.90884 14.7287 10.3094C14.7287 11.692 13.9772 12.6796 12.3036 12.6796Z"/>
    </symbol>
    <symbol id="search" viewBox="0 0 24 24">
        <path d="M15.755 14.255h-.79l-.28-.27a6.471 6.471 0 0 0 1.57-4.23 6.5 6.5 0 1 0-6.5 6.5c1.61 0 3.09-.59 4.23-1.57l.27.28v.79l5 4.99 1.49-1.49-4.99-5zm-6 0c-2.49 0-4.5-2.01-4.5-4.5s2.01-4.5 4.5-4.5 4.5 2.01 4.5 4.5-2.01 4.5-4.5 4.5z" />
    </symbol>
    <symbol id="star" viewBox="0 0 12 12">
        <path fill="#fff" d="M6 8.885l3.09 1.865-.82-3.515L11 4.87l-3.595-.305L6 1.25 4.595 4.565 1 4.87l2.73 2.365-.82 3.515L6 8.885z" />

    <symbol id="category-bags" viewBox="0 0 60 60">
        <path fill="#757AFF" fill-rule="evenodd" d="M15.145 24.48c-3.374 5.903-8.508 18.817-2.056 23.245 6.452 4.427 23.245 3.426 30.835 2.372 4.375-5.482 10.057-18.28-2.214-25.617h-5.692c1.265-7.59-3.637-13.441-12.493-15.339-7.084-1.518-5.27 9.593-3.478 15.339h-4.902zm18.498.74C22.876 26.288 15.11 10.09 22.876 10.09c2.647 0 10.943 5.873 10.767 15.13z" clip-rule="evenodd" />
        <path fill-rule="evenodd" d="M36.176 23.18c.473-6.255-3.39-11.169-10.241-13.395a24.221 24.221 0 0 0-2.41-.644 6.63 6.63 0 0 0-.649-.107c-3.004-.337-4.184 1.88-4.408 4.896-.213 2.863.435 6.446 1.2 9.25.124.456.251.891.379 1.3h-4.902c-3.374 5.903-8.508 18.817-2.056 23.245 6.452 4.427 23.245 3.426 30.835 2.372 4.375-5.482 10.057-18.28-2.213-25.617h-5.693c.073-.44.126-.873.158-1.3zm1.303 0c.245-3.542-.78-6.739-2.907-9.33-2.406-2.93-6.137-4.986-10.774-5.98-2.117-.454-3.858.01-5.038 1.366-1.08 1.243-1.49 3.02-1.6 4.769-.183 2.91.43 6.398 1.162 9.175H14.39l-.374.655c-1.73 3.028-3.924 7.867-4.859 12.567-.91 4.577-.74 9.693 3.196 12.395 1.825 1.252 4.284 2.063 6.957 2.59 2.694.53 5.712.792 8.732.879 6.04.174 12.21-.347 16.061-.882l.514-.071.323-.405c2.288-2.867 4.95-7.672 5.414-12.807.234-2.59-.09-5.293-1.336-7.862-1.25-2.574-3.385-4.928-6.64-6.875l-.309-.184h-4.59zM25.412 10.982c-.804-.457-1.53-.745-2.1-.849a2.456 2.456 0 0 0-.436-.043c-2.463 0-3.364 1.629-3.102 3.82.385 3.223 3.287 7.664 7.433 9.92.448.243.91.461 1.385.65 1.563.62 3.266.917 5.051.74a13.476 13.476 0 0 0-.004-.74c-.2-6.753-4.884-11.594-8.228-13.498zm6.9 12.982c-.258-3.663-1.955-6.702-3.956-8.907-1.11-1.223-2.293-2.165-3.33-2.793-1.093-.662-1.854-.874-2.15-.874-.745 0-1.143.191-1.358.377-.214.185-.394.491-.461 1.006-.142 1.092.283 2.781 1.371 4.62 1.99 3.363 5.687 6.422 9.884 6.57z" clip-rule="evenodd" />
        <path d="M25.897 36.023l1.265-5.219.949 3.163 2.688-3.953-1.74 4.902h5.693L30.8 37.604l.949 2.53-2.688-1.581-4.112 6.957 1.581-6.957-5.85-2.53h5.218z" />
    </symbol>
    <symbol id="category-hat" viewBox="0 0 60 60">
        <path fill="#ADF369" d="M10.436 35.755L6 44.628c6.76 13.351 34.223 5.563 47.11 0-.775-1.056-2.916-1.986-8.662-6.549-5.746-4.563.634-18.379-5.493-25.561-.845-1.62-5.408-4.521-16.9-3.169-11.492 1.352-12.534 18.168-11.619 26.407z" />
        <path fill-rule="evenodd" d="M34.321 10.444c-2.579-.73-6.503-1.119-12.19-.45-5.36.63-8.36 4.854-9.914 10.158-1.551 5.294-1.586 11.466-1.135 15.531l.022.191-4.374 8.747c1.611 2.965 4.357 4.803 7.849 5.796 3.615 1.03 7.992 1.14 12.61.657 8.818-.92 18.352-3.983 24.772-6.665a9.12 9.12 0 0 0-.12-.093c-.362-.278-.83-.603-1.457-1.036l-.11-.077a108.908 108.908 0 0 1-6.23-4.615c-1.622-1.288-2.343-3.198-2.66-5.322-.303-2.032-.25-4.364-.196-6.707l.006-.293c.056-2.469.097-4.957-.247-7.27-.343-2.307-1.061-4.386-2.486-6.057l-.048-.056-.034-.065c-.301-.577-1.446-1.635-4.058-2.374zm5.174 1.704c-.575-1.026-2.126-2.193-4.82-2.955-2.787-.788-6.89-1.173-12.696-.49-6.132.721-9.398 5.583-11.01 11.084-1.59 5.427-1.641 11.674-1.2 15.848L5.273 44.63l.148.291c1.793 3.541 4.952 5.651 8.803 6.747 3.838 1.092 8.399 1.19 13.102.699 9.408-.983 19.562-4.345 26.042-7.142l.749-.324-.482-.658c-.249-.338-.586-.639-1-.958-.39-.299-.885-.641-1.495-1.064l-.126-.087a107.863 107.863 0 0 1-6.16-4.564c-1.252-.994-1.888-2.522-2.183-4.496-.286-1.918-.235-4.15-.181-6.54l.005-.239c.056-2.453.102-5.05-.26-7.49-.361-2.425-1.132-4.746-2.74-6.657z" clip-rule="evenodd" />
        <path d="M29.808 30.056l1.367-5.69 1.025 3.448 2.906-4.311-1.88 5.346h6.152l-4.272 2.932 1.025 2.759-2.905-1.725-4.444 7.588 1.71-7.588-6.324-2.759h5.64z" />
        <path fill-rule="evenodd" d="M19.245 38.923c-5.383 1.256-8.615-1.57-9.585-3.268l1.129-.645c.72 1.26 3.404 3.757 8.16 2.647l.296 1.266z" clip-rule="evenodd" />
    </symbol>
    <symbol id="category-food" viewBox="0 0 60 60">
        <path fill="#FFAF75" d="M45.486 14.77c-2.93-15.216-15.057-5.856-20.755.726-12.257 4.956-4.574 16.395.799 21.495l-6.37 3.935c-1.196-2.435-4.253-5.722-6.919.61-2.666 6.333 2.88 6.656 5.987 6.026-1.387 2.3 6.813 8.52 9.676 6.044 2.29-1.98-1.068-5.447-3.034-6.933l4.808-7.908c6.49-1.659 18.737-8.78 15.808-23.995z" />
        <path fill-rule="evenodd" d="M30.368 10.976c-1.947 1.536-3.744 3.325-5.146 4.945l-.102.118-.146.059c-2.962 1.198-4.633 2.75-5.463 4.42-.83 1.669-.866 3.553-.362 5.51 1.015 3.944 4.178 7.976 6.828 10.492l.612.58-7.697 4.755-.316-.643a7.52 7.52 0 0 0-1.11-1.674c-.455-.505-.93-.846-1.383-.967-.411-.11-.87-.06-1.398.363-.56.448-1.198 1.317-1.845 2.854-.64 1.52-.745 2.584-.59 3.315.15.7.554 1.169 1.133 1.488.601.33 1.392.498 2.253.536a10.42 10.42 0 0 0 2.463-.202l1.45-.294-.765 1.267c-.057.095-.095.253-.026.526.07.28.241.627.523 1.023.563.79 1.485 1.655 2.559 2.392 1.073.736 2.25 1.31 3.298 1.558 1.069.252 1.858.135 2.34-.283.421-.363.561-.76.545-1.194-.018-.469-.223-1.023-.594-1.626-.74-1.204-2.002-2.385-2.95-3.103l-.47-.354L29.26 38.2l.257-.065c3.148-.805 7.71-2.944 11.114-6.72 3.38-3.749 5.64-9.13 4.216-16.523-.718-3.73-1.974-5.804-3.415-6.823-1.418-1.004-3.157-1.084-5.095-.49-1.947.598-4.016 1.856-5.969 3.397zm11.815-3.968c1.836 1.299 3.194 3.76 3.94 7.638 1.507 7.823-.893 13.61-4.526 17.64-3.518 3.902-8.172 6.138-11.5 7.04l-4.373 7.193c.948.78 2.079 1.9 2.813 3.094.428.697.756 1.474.785 2.259.03.82-.268 1.599-.993 2.226-.949.82-2.258.854-3.489.564-1.25-.294-2.574-.955-3.736-1.751-1.16-.797-2.207-1.763-2.881-2.71-.337-.471-.602-.968-.725-1.459a2.523 2.523 0 0 1-.068-.393 11.31 11.31 0 0 1-1.852.077c-.97-.043-1.98-.234-2.822-.697-.862-.474-1.539-1.235-1.777-2.356-.232-1.091-.03-2.441.663-4.089.686-1.629 1.43-2.724 2.23-3.365.832-.665 1.712-.828 2.548-.604.794.213 1.474.755 2.012 1.353.373.415.7.88.972 1.342l5.077-3.135c-2.598-2.612-5.567-6.546-6.591-10.524-.557-2.16-.551-4.384.457-6.413.994-1.998 2.914-3.712 5.995-4.986 1.431-1.64 3.247-3.44 5.22-4.997 2.016-1.59 4.23-2.955 6.393-3.618 2.172-.666 4.37-.645 6.228.67z" clip-rule="evenodd" />
        <path fill-rule="evenodd" d="M29.717 39.215a12.463 12.463 0 0 1-2.763-1.394l.747-1.064c.346.244 1.349.85 2.442 1.23l-.426 1.228z" clip-rule="evenodd" />
        <path d="M33.966 13.49l.72-3.03.539 1.836L36.753 10l-.989 2.847H39l-2.247 1.561.54 1.47-1.529-.919L33.427 19l.899-4.04L31 13.49h2.966z" />
    </symbol>
    <symbol id="category-clothes" viewBox="0 0 60 60">
        <path fill="#FF617A" d="M10.639 25.14C2.967 19.085 13.835 12.524 20.227 10c7.67 15.208 11.832 6.337 12.953 0 21.265 3.095 17.608 11.384 13.122 15.14 0 0-5.49-1.298-8.58 0-7.605 3.2 13.628 16.15 13.628 16.15-1.85 4.487-9.757 12.349-26.58 7.908-14.9-3.934-8.906-14.931-2.47-21.68-2.474 1.424-6.435 1.749-11.662-2.377z" />
        <path fill-rule="evenodd" d="M22.3 27.518a7.205 7.205 0 0 1-2.54.883c-2.354.352-5.42-.338-9.121-3.26-7.672-6.056 3.196-12.617 9.589-15.14 7.671 15.207 11.832 6.336 12.953 0 21.265 3.095 17.609 11.383 13.122 15.14 0 0-5.49-1.298-8.58 0-7.607 3.198 13.627 16.15 13.627 16.15-1.85 4.486-9.757 12.348-26.58 7.907-13.451-3.551-9.873-12.86-4.316-19.602.578-.7 1.177-1.374 1.78-2.01l.065-.068zm-3.657 2.267a9.818 9.818 0 0 1-1.31-.085c-2.24-.294-4.75-1.368-7.5-3.539-2.127-1.679-3.185-3.58-3.13-5.62.051-1.967 1.134-3.727 2.51-5.187 2.752-2.92 7.278-5.276 10.537-6.563l1.104-.436.535 1.06c1.891 3.75 3.49 5.85 4.761 6.883.624.507 1.114.713 1.476.776.34.06.639.006.937-.149.67-.347 1.38-1.236 2.014-2.646.612-1.36 1.057-2.993 1.324-4.505l.22-1.242 1.248.182c5.388.784 9.294 1.91 12.04 3.264 2.743 1.353 4.442 2.993 5.195 4.857.763 1.889.458 3.76-.293 5.347-.744 1.57-1.953 2.934-3.173 3.956l-.5.418-.633-.15h-.001l-.008-.002-.04-.009a13.97 13.97 0 0 0-.163-.035 25.154 25.154 0 0 0-2.74-.411c-1.733-.16-3.598-.126-4.826.39-.704.297-.806.579-.833.698-.046.204-.012.627.387 1.347.794 1.434 2.566 3.221 4.736 5.033 2.132 1.78 4.508 3.47 6.362 4.723a102.626 102.626 0 0 0 3.093 2.007l.042.026.01.007.003.001.949.579-.424 1.027c-2.126 5.155-10.733 13.256-28.114 8.668-3.87-1.022-6.57-2.549-8.236-4.514-1.698-2.002-2.213-4.326-1.96-6.666.35-3.257 2.188-6.6 4.401-9.49z" clip-rule="evenodd" />
        <path d="M31.527 28.97l3.987 2.196-2.798.095 2.634 3.102-3.622-2.52-1.268 4.732-1.318-3.876-2.28.234 1.892-1.888-4.775-4.943 5.338 2.84 3.373-4.31-1.163 4.338z" />
    </symbol>
    <symbol id="category-jewlery" viewBox="0 0 60 60">
        <path fill="#EF6D44" d="M9.804 31.83c-3.127-4.33 2.53-5.273 5.75-5.203 3.992-.656 3.608 5.851 2.917 9.186-1.586.477-5.54.347-8.667-3.983z" />
        <path fill-rule="evenodd" d="M19.41 29.62c.334 2.073.049 4.622-.304 6.324l-.078.38-.371.111c-1.84.553-6.084.34-9.38-4.225-.833-1.152-1.177-2.209-.985-3.159.195-.96.895-1.613 1.698-2.045 1.56-.841 3.883-1.06 5.519-1.03 1.168-.176 2.1.17 2.763.905.638.705.97 1.707 1.137 2.738zm-2.102-1.868c-.354-.392-.85-.616-1.65-.484l-.059.01-.06-.002c-1.581-.034-3.66.188-4.933.874-.623.336-.952.726-1.04 1.159-.089.442.033 1.127.764 2.14 2.717 3.762 6.028 4.107 7.582 3.828.296-1.604.489-3.748.214-5.45-.15-.93-.427-1.641-.819-2.075z" clip-rule="evenodd" />
        <path fill="#EF6D44" d="M13.003 39.374c-.85-3.935 2.604-3.531 4.438-2.838 1.277.222 4.532 1.688 7.34 5.782 2.807 4.095-3.152 5.392-6.483 5.528-1.41-1.184-4.444-4.536-5.295-8.471z" />
        <path fill="#EF6D44" d="M28.65 53.812c-4.449 1.213-5.294-3.924-5.161-6.644l5.613-3.762c.985 1.035 3.387 3.609 5.113 5.621 2.156 2.516-.003 3.27-5.565 4.785z" />
        <path fill-rule="evenodd" d="M17.615 35.908c1.507.289 4.852 1.887 7.702 6.044.643.938.924 1.83.826 2.655l3.052-2.045.378.396c.988 1.038 3.4 3.621 5.135 5.647.563.656.958 1.32.98 1.999.022.747-.403 1.304-.982 1.72-.565.404-1.366.744-2.328 1.07-.972.331-2.168.667-3.557 1.046-1.235.337-2.292.248-3.165-.19-.863-.435-1.467-1.172-1.884-1.99-.718-1.408-.945-3.18-.946-4.55-1.491.51-3.21.733-4.5.786l-.253.01-.192-.162c-1.466-1.23-4.62-4.698-5.513-8.832-.23-1.059-.193-1.93.121-2.61.325-.705.901-1.108 1.535-1.303.615-.19 1.295-.19 1.914-.11a7.97 7.97 0 0 1 1.677.419zm6.513 11.615c-.022 1.272.179 2.923.802 4.147.334.655.767 1.145 1.31 1.418.533.268 1.25.367 2.24.097 1.391-.379 2.55-.705 3.48-1.021.94-.32 1.588-.61 1.988-.897.387-.277.444-.474.44-.623-.007-.217-.15-.591-.667-1.193-1.524-1.778-3.584-4.002-4.713-5.199l-4.88 3.27zM13.67 37.446c-.152.329-.228.883-.032 1.792.773 3.571 3.468 6.684 4.889 7.947 1.6-.092 3.652-.447 5.002-1.188.709-.389 1.126-.83 1.27-1.298.138-.444.08-1.086-.554-2.012-2.725-3.974-5.837-5.323-6.915-5.51l-.061-.01-.058-.022c-.419-.159-.93-.3-1.44-.366-.518-.067-.993-.052-1.364.062-.353.11-.596.3-.737.605z" clip-rule="evenodd" />
        <path fill="#EF6D44" d="M33.098 47.03c-.739-.94.99-3.55 1.948-4.736 1.818-.512 5.824-.817 7.31 2.056 1.486 2.873-.962 4.681-2.372 5.226-1.987-.457-6.147-1.607-6.886-2.547z" />
        <path fill-rule="evenodd" d="M38.925 41.411c1.533.237 3.136.954 4.008 2.641.858 1.66.59 3.085-.14 4.152-.7 1.02-1.789 1.675-2.574 1.979l-.186.072-.194-.045a45.899 45.899 0 0 1-3.972-1.11 18.46 18.46 0 0 1-1.938-.752c-.523-.246-1.053-.548-1.342-.917-.357-.454-.356-1.026-.27-1.49.09-.48.296-.994.538-1.477.487-.973 1.189-1.962 1.686-2.578l.13-.161.2-.056c.975-.275 2.527-.494 4.054-.258zm-3.503 1.456c-.446.572-1.012 1.394-1.405 2.179-.217.434-.364.823-.422 1.133-.06.327.002.433.014.449.08.102.347.296.874.544.493.232 1.117.468 1.796.696a44.51 44.51 0 0 0 3.65 1.028c.598-.265 1.331-.756 1.79-1.427.474-.69.687-1.606.06-2.82-.614-1.186-1.757-1.753-3.053-1.953-1.204-.187-2.457-.039-3.304.171z" clip-rule="evenodd" />
        <path fill="#EF6D44" d="M37.955 41.784c-3.541-1.425-.54-5.993 1.404-8.099 2.178-.862 8.452 3.27 9.68 5.286 1.23 2.017-6.659 4.595-11.084 2.813z" />
        <path fill-rule="evenodd" d="M47.728 36.672c.809.669 1.5 1.361 1.866 1.96.267.44.285.918.104 1.359-.167.406-.488.75-.85 1.033-.73.57-1.828 1.055-3.054 1.403-2.442.694-5.683.926-8.083-.04-1.044-.42-1.682-1.115-1.93-1.998-.238-.843-.092-1.761.204-2.613.593-1.704 1.896-3.45 2.895-4.532l.1-.109.139-.054c.77-.306 1.765-.14 2.7.164.973.317 2.044.84 3.066 1.444a22.576 22.576 0 0 1 2.843 1.983zm-8.007-2.42c-.922 1.024-2.02 2.547-2.508 3.95-.254.732-.316 1.355-.181 1.835.124.44.438.852 1.164 1.144 2.026.816 4.942.65 7.243-.004 1.146-.326 2.065-.752 2.608-1.177.273-.214.402-.39.448-.503.033-.08.028-.122-.012-.188-.248-.409-.802-.989-1.583-1.635a21.272 21.272 0 0 0-2.676-1.866c-.972-.574-1.954-1.048-2.808-1.327-.789-.256-1.354-.308-1.695-.23z" clip-rule="evenodd" />
        <path fill="#EF6D44" d="M42.806 33.946c-1.976-1.606-.343-5.17.72-6.753 8.456-4.035 7.523 2.996 5.999 7.015-1.416.582-4.742 1.343-6.719-.262z" />
        <path fill-rule="evenodd" d="M51.063 30.942c-.178 1.218-.537 2.458-.93 3.496l-.1.264-.261.107c-.766.315-2.024.67-3.364.737-1.33.066-2.846-.15-4.011-1.096-1.284-1.043-1.316-2.67-1.005-4.034.318-1.39 1.034-2.751 1.595-3.586l.099-.147.16-.077c2.153-1.027 3.823-1.41 5.091-1.228.648.093 1.194.334 1.63.709.432.372.724.85.912 1.372.37 1.026.36 2.28.184 3.483zm-7.094-3.24c1.984-.926 3.32-1.161 4.184-1.037.43.061.737.21.965.407.23.198.41.472.538.828.264.73.284 1.735.12 2.855a15.67 15.67 0 0 1-.76 2.952 9.58 9.58 0 0 1-2.672.54c-1.181.059-2.318-.148-3.128-.807-.692-.562-.833-1.521-.556-2.735.254-1.114.825-2.249 1.309-3.002z" clip-rule="evenodd" />
        <path fill-rule="evenodd" d="M21.084 21.53c-2.95 1.92-5.733 4.323-7.03 5.753l-.963-.873c1.386-1.528 4.259-4.001 7.284-5.97 1.515-.986 3.09-1.86 4.556-2.426 1.443-.557 2.883-.857 4.073-.559 2.477.62 6.69 1.71 10.265 3.068 1.782.676 3.443 1.432 4.657 2.248.606.407 1.13.85 1.5 1.329.373.482.62 1.043.582 1.663l-1.297-.08c.012-.206-.062-.464-.313-.788-.253-.327-.653-.679-1.198-1.045-1.09-.733-2.64-1.447-4.393-2.112-3.495-1.327-7.642-2.403-10.118-3.022-.791-.198-1.916-.02-3.29.51-1.35.522-2.842 1.345-4.315 2.304z" clip-rule="evenodd" />
        <path fill-rule="evenodd" d="M27.91 16.165c-.647-2.502-1.792-5.84-3.26-8.116-.76-1.179-1.687-2.198-2.783-2.56a2.62 2.62 0 0 0-1.78.034c-.592.223-1.147.652-1.669 1.265-1.064 1.249-1.369 2.534-1.031 3.773.323 1.188 1.207 2.22 2.273 3.083 2.056 1.666 5.06 2.923 7.277 3.607l-.049.055-1.284 1.454 1.901-.387c1.913-.39 4.843-1.32 7.456-2.858 2.595-1.528 5.007-3.734 5.641-6.726.079-.37.12-.705.115-1-.005-.291-.056-.589-.202-.847a1.153 1.153 0 0 0-.707-.554 1.633 1.633 0 0 0-.815.01c-.494.118-1.054.417-1.627.796-.586.387-1.24.893-1.927 1.475-2.368 2.003-5.27 5.004-7.53 7.496zm1.394.4c1.548-.479 3.345-1.198 4.997-2.17 2.482-1.462 4.508-3.418 5.03-5.876.066-.311.089-.542.086-.707a.964.964 0 0 0-.016-.17.8.8 0 0 0-.105.02c-.267.063-.672.26-1.213.617-.528.348-1.138.82-1.804 1.382-2.161 1.828-4.808 4.537-6.975 6.904zm-8.76-9.825c-.326.123-.709.39-1.136.891-.835.98-.973 1.833-.767 2.588.22.807.862 1.625 1.837 2.415 1.627 1.318 3.973 2.393 5.965 3.086-.652-2.315-1.665-5.076-2.885-6.966-.726-1.124-1.445-1.815-2.098-2.03a1.317 1.317 0 0 0-.915.016z" clip-rule="evenodd" />
        <path d="M29.364 47.983l2.664 1.466-1.87.064 1.76 2.072-2.42-1.684-.847 3.162-.88-2.59-1.524.157 1.264-1.261-3.19-3.303 3.566 1.897 2.254-2.879-.777 2.899z" />
    </symbol>
    <symbol id="category-makeup" viewBox="0 0 60 60">
        <path fill="#FF3E3E" d="M13.17 6.808c-1.41.953-2.032 5.155-2.166 7.136l7.187 10.642c-1.596 1.52 2.929 5.954 5.39 7.98l-1.41 1.922c-.77 2.07 10.246 13.833 15.85 19.456 9.917-2.713 10.81-8.131 10.018-10.502-4.456-5.752-13.542-17.556-14.233-18.75-.692-1.192-2.085-.482-2.695.022-1.589-1.648-4.881-5.115-5.343-5.8-.462-.683-1.84.09-2.472.563-2.788-4.62-8.716-13.621-10.126-12.669z" />
        <path fill-rule="evenodd" d="M11.668 13.768l7.37 10.91-.398.378c-.118.113-.22.34-.015.913.202.56.642 1.254 1.248 2.012 1.2 1.503 2.91 3.086 4.122 4.084l.475.39-1.687 2.298c.002.024.006.06.015.107.027.136.088.322.196.562.215.48.58 1.094 1.077 1.822.992 1.452 2.453 3.27 4.128 5.216 3.239 3.764 7.227 7.948 10.014 10.756 4.627-1.328 7.078-3.24 8.297-5.019 1.21-1.765 1.242-3.446.944-4.448-2.23-2.878-5.575-7.216-8.46-10.997-1.458-1.91-2.8-3.68-3.82-5.047-1.004-1.345-1.733-2.346-1.93-2.686-.108-.185-.216-.258-.303-.292a.734.734 0 0 0-.399-.02c-.362.065-.762.297-1.017.508l-.464.384-.418-.434a289.51 289.51 0 0 1-3.101-3.269 95.823 95.823 0 0 1-1.453-1.586c-.379-.425-.696-.795-.847-1.013a.336.336 0 0 0-.018-.002c-.077-.006-.215.012-.415.081-.396.138-.838.409-1.123.622l-.575.43-.371-.615c-1.388-2.3-3.556-5.687-5.546-8.373-.998-1.347-1.934-2.494-2.694-3.24-.384-.377-.691-.618-.914-.739a.998.998 0 0 0-.125-.059c-.188.158-.401.455-.615.917-.235.507-.437 1.14-.606 1.826a24.186 24.186 0 0 0-.572 3.623zm1.74-6.38l.01.001h-.01zm-1.742.385c.275-.594.64-1.165 1.14-1.503.5-.337 1.055-.138 1.4.048.382.208.791.549 1.205.954.835.82 1.82 2.033 2.828 3.394 1.861 2.513 3.864 5.612 5.263 7.898.27-.158.575-.31.88-.416.281-.097.614-.175.945-.148.354.028.73.18.98.55.086.128.346.439.753.895.393.442.894.987 1.433 1.565.914.981 1.93 2.05 2.702 2.854.32-.19.708-.364 1.118-.437.339-.06.725-.059 1.103.09.388.152.713.438.952.85.149.256.815 1.177 1.848 2.56a637.821 637.821 0 0 0 3.811 5.036c2.914 3.818 6.298 8.206 8.526 11.081l.067.088.035.104c.462 1.382.404 3.541-1.073 5.696-1.477 2.156-4.335 4.256-9.39 5.64l-.364.1-.267-.269c-2.809-2.818-6.976-7.177-10.348-11.095-1.684-1.957-3.183-3.819-4.215-5.33-.515-.754-.928-1.442-1.19-2.024a3.99 3.99 0 0 1-.285-.842c-.051-.258-.069-.562.038-.85l.032-.085 1.105-1.504c-1.2-1.028-2.716-2.472-3.841-3.88-.634-.795-1.18-1.621-1.455-2.383-.21-.586-.3-1.261-.004-1.837l-7.058-10.45.015-.223c.07-1.018.263-2.602.623-4.065.18-.73.405-1.451.688-2.062z" clip-rule="evenodd" />
        <path d="M34.548 41.253l-4.534-.055 2.43-1.367-3.756-1.454 4.361.502-1.056-4.648 2.948 2.724 1.908-1.248-.804 2.49 6.495 2.054-6.025.012-.999 5.25-.968-4.26z" />
        <path fill-rule="evenodd" d="M15.62 13.299c-1.065 1.3-2.947 1.617-4.248 1.573l.04-1.199c1.18.04 2.575-.274 3.278-1.134.64-.781.92-2.313-.815-5.265l1.035-.608c1.817 3.09 1.838 5.252.71 6.633zm6.776 8.635c.236-.93.277-2.015.239-2.728l1.198-.064c.042.791 0 2.005-.274 3.087-.137.541-.341 1.083-.648 1.527-.31.45-.75.828-1.346.957l-.255-1.173c.219-.047.423-.19.614-.466.195-.283.354-.675.472-1.14zm5.394 10.31a8.967 8.967 0 0 1-4.125 1.278l-.05-1.199a7.77 7.77 0 0 0 3.545-1.1c1.219-.752 2.254-1.941 2.513-3.795l1.188.166c-.317 2.275-1.611 3.75-3.07 4.65z" clip-rule="evenodd" />
    </symbol>
    <symbol id="category-living" viewBox="0 0 60 60">
        <path fill="#9975FF" d="M16.877 8.193c.851-3.972 16.667-1.655 24.468 0 6.028 1.108 4.61 38.652 4.255 42.553-.354 3.9-26.595 3.9-30.142 0-3.546-3.9.355-37.589 1.419-42.553z" />
        <path fill-rule="evenodd" d="M41.472 7.555c-3.92-.83-9.854-1.83-14.93-2.121-2.534-.146-4.896-.119-6.697.21-.9.165-1.702.412-2.324.781-.63.374-1.124.904-1.28 1.631-.542 2.53-1.785 12.23-2.45 21.767-.334 4.773-.524 9.53-.407 13.346.06 1.907.195 3.597.433 4.945.12.674.267 1.277.45 1.785.18.501.407.95.71 1.284.557.612 1.484 1.082 2.567 1.457 1.105.382 2.462.694 3.964.941 3.008.495 6.668.74 10.218.74 3.547 0 7.015-.245 9.635-.743 1.305-.248 2.437-.565 3.27-.967.78-.376 1.538-.944 1.616-1.806.18-1.983.624-12.372.269-22.406-.178-5.016-.556-9.974-1.275-13.76-.358-1.888-.808-3.524-1.38-4.737-.552-1.17-1.31-2.144-2.39-2.347zm-23.288-.011c-.428.253-.615.52-.672.785-.522 2.435-1.76 12.061-2.425 21.584-.332 4.757-.518 9.464-.403 13.216.058 1.878.19 3.498.413 4.759.112.63.243 1.156.393 1.572.152.423.309.694.45.849.329.362.997.745 2.03 1.102 1.01.35 2.288.647 3.75.887 2.92.48 6.507.723 10.006.723 3.501 0 6.881-.242 9.392-.72 1.26-.24 2.264-.531 2.948-.86.736-.356.877-.642.887-.754.174-1.918.617-12.252.263-22.242-.177-4.997-.552-9.876-1.252-13.563-.35-1.848-.776-3.358-1.28-4.426-.52-1.106-1.034-1.546-1.457-1.624l-.009-.002-.008-.002c-3.883-.823-9.752-1.81-14.743-2.096-2.502-.144-4.74-.11-6.388.192-.826.15-1.46.361-1.895.62z" clip-rule="evenodd" />
        <path fill="#9975FF" d="M19.683 22.419c-1.872-1.09-.78-8.632 0-12.267.27-1.363 9.824-1.363 11.228 1.363 1.403 2.726-.468 9.541-1.404 10.904-.935 1.363-7.485 1.363-9.824 0z" />
        <path fill-rule="evenodd" d="M28.806 9.343c1.126.371 2.207.95 2.682 1.874.42.815.57 1.873.577 2.955.007 1.097-.13 2.29-.34 3.424a24.923 24.923 0 0 1-.789 3.129c-.287.879-.602 1.638-.893 2.061-.21.307-.534.518-.856.669a5.498 5.498 0 0 1-1.143.365c-.84.183-1.87.27-2.923.27a18.45 18.45 0 0 1-3.162-.265c-.988-.175-1.923-.448-2.604-.845-.388-.226-.65-.59-.831-.978-.182-.391-.303-.853-.383-1.345-.159-.985-.171-2.197-.102-3.454.139-2.519.613-5.346 1.007-7.184.055-.268.212-.464.365-.597.153-.133.336-.234.516-.312.362-.156.824-.267 1.326-.346 1.014-.158 2.327-.2 3.661-.113 1.334.088 2.726.307 3.892.692zm-8.507 1.035c-.382 1.798-.83 4.506-.962 6.897-.067 1.22-.05 2.324.088 3.174.069.425.164.76.277 1.004.115.247.228.358.307.404.489.285 1.25.523 2.177.688.916.163 1.945.246 2.935.246.993 0 1.923-.083 2.647-.24.362-.08.654-.173.869-.274.224-.105.31-.192.334-.226.177-.258.446-.862.73-1.73.275-.845.546-1.882.746-2.961.2-1.081.325-2.188.318-3.179-.007-1.004-.15-1.82-.433-2.369-.226-.44-.866-.882-1.934-1.235-1.029-.34-2.305-.546-3.569-.629-1.264-.082-2.478-.04-3.375.1-.453.071-.793.162-1.012.256-.068.03-.114.055-.143.074z" clip-rule="evenodd" />
        <path fill="#9975FF" d="M22.573 15.477c-1.968-.742-.82-2.783 0-3.71 1.574-1.113 2.295.463 2.46 1.39 0 1.083-.493 3.062-2.46 2.32z" />
        <path fill-rule="evenodd" d="M24.605 11.404c.49.458.734 1.185.822 1.684l.006.034v.036c0 .578-.128 1.437-.562 2.07a1.81 1.81 0 0 1-.967.734c-.428.13-.92.097-1.472-.111-.563-.213-.95-.538-1.161-.957-.209-.414-.218-.865-.135-1.281.163-.819.706-1.624 1.138-2.112l.03-.034.038-.027c.44-.311.862-.464 1.265-.456.408.008.742.181.998.42zm-1.763.662c.329-.224.574-.286.749-.283a.69.69 0 0 1 .468.206c.297.277.494.782.574 1.204-.006.499-.125 1.15-.422 1.581-.145.212-.322.357-.54.422-.218.067-.525.069-.957-.094-.42-.159-.628-.367-.729-.568-.104-.207-.125-.463-.065-.765.12-.603.541-1.262.922-1.703z" clip-rule="evenodd" />
        <path fill="#9975FF" d="M21.144 19.812c-.722-1.87 1.517-2.47 2.727-2.535 1.832.33 1.138 1.907.562 2.655-.795.739-2.566 1.75-3.289-.12z" />
        <path fill-rule="evenodd" d="M25.454 18.46c-.02.654-.397 1.317-.704 1.716l-.02.026-.025.022c-.423.394-1.133.89-1.874 1.02-.381.067-.794.042-1.175-.171-.382-.214-.68-.587-.885-1.117-.21-.543-.218-1.037-.047-1.468.168-.422.49-.734.846-.959.702-.443 1.641-.617 2.279-.652l.047-.002.046.008c.513.093.907.283 1.169.576a1.4 1.4 0 0 1 .343 1.001zm-1.609-.781c.373.074.567.2.669.313a.6.6 0 0 1 .14.443c-.012.395-.257.879-.518 1.226-.373.34-.932.705-1.444.795-.252.045-.466.019-.646-.082-.178-.1-.372-.301-.529-.706-.15-.392-.133-.675-.05-.884.087-.218.265-.411.53-.578.524-.331 1.28-.49 1.848-.527z" clip-rule="evenodd" />
        <path fill="#9975FF" d="M26.597 16.405c-.568-1.33.957-1.664 1.791-1.666 1.278.297.856 1.37.486 1.87-.523.485-1.71 1.125-2.277-.204z" />
        <path fill-rule="evenodd" d="M29.649 15.59c.01.495-.245.976-.454 1.257l-.022.03-.027.024c-.29.271-.793.614-1.344.683a1.37 1.37 0 0 1-.889-.175c-.289-.173-.518-.458-.684-.847-.17-.398-.204-.774-.087-1.11.116-.332.358-.564.618-.72.505-.305 1.18-.392 1.627-.393h.046l.045.01c.374.087.67.242.875.47.209.233.29.508.296.77zm-1.307-.45c.235.06.355.146.415.213s.09.148.092.254c.005.229-.122.518-.275.734-.231.207-.569.411-.872.45a.571.571 0 0 1-.378-.069c-.11-.065-.242-.199-.36-.475-.113-.266-.102-.43-.066-.531.036-.105.12-.206.275-.3.312-.187.79-.27 1.169-.276z" clip-rule="evenodd" />
        <path d="M28.574 39.905l-8.287-.101 4.44-2.499-6.865-2.658 7.973.917-1.932-8.495 5.39 4.979 3.488-2.282-1.47 4.553 11.873 3.754-11.014.022-1.825 9.598-1.77-7.788z" />
    </symbol>
    <symbol id="category-shoes" viewBox="0 0 60 60">
        <path fill="#75D6FF" d="M28.194 10.834c-10.153-2.068-15.96.191-17.594 1.58-1.01 1.34-1.471 8.814 4.759 27.995s26.247 7.992 35.476 0c.529-2.967.087-10.452-5.913-16.654-5.999-6.202-10.96 3.829-12.69 9.62V26.77c2.884-4.45 6.114-13.869-4.038-15.936z" />
        <path fill-rule="evenodd" d="M11.085 12.855c-.054.09-.127.255-.198.524a7.514 7.514 0 0 0-.198 1.324c-.084 1.134-.045 2.75.22 4.94.53 4.378 1.96 10.999 5.068 20.565 1.519 4.677 3.846 7.416 6.558 8.841 2.721 1.432 5.93 1.593 9.308.913 6.69-1.35 13.803-5.96 18.388-9.891.438-2.948-.097-9.993-5.776-15.864-1.406-1.454-2.651-1.862-3.727-1.735-1.11.132-2.214.855-3.269 2.03-2.11 2.35-3.75 6.196-4.605 9.058l-1.273-.186v-6.796l.105-.162c1.409-2.174 2.86-5.508 2.766-8.487-.047-1.471-.47-2.827-1.43-3.933-.962-1.108-2.52-2.03-4.958-2.526-5.008-1.02-8.918-.967-11.757-.501-2.773.455-4.488 1.297-5.222 1.886zm5.012-3.169c3.01-.494 7.08-.537 12.226.51 2.639.538 4.483 1.57 5.68 2.948 1.2 1.38 1.694 3.045 1.748 4.743.104 3.28-1.424 6.79-2.87 9.073v2.71c.922-2.167 2.146-4.406 3.611-6.037 1.152-1.282 2.522-2.266 4.083-2.451 1.596-.19 3.22.473 4.814 2.12 6.17 6.38 6.644 14.087 6.086 17.22l-.04.227-.175.151c-4.651 4.028-12.064 8.905-19.16 10.336-3.56.718-7.099.58-10.17-1.036-3.083-1.621-5.594-4.677-7.19-9.59-3.123-9.615-4.577-16.322-5.121-20.811-.272-2.244-.318-3.948-.226-5.192a8.79 8.79 0 0 1 .237-1.558c.107-.41.252-.765.45-1.027l.044-.058.055-.047c.939-.797 2.926-1.74 5.918-2.231z" clip-rule="evenodd" />
        <path fill-rule="evenodd" d="M28.485 28.533c-2.154.48-4.501.602-5.94.388l.192-1.285c1.239.184 3.42.084 5.465-.372 1.017-.227 1.97-.536 2.74-.923.78-.393 1.302-.832 1.552-1.282l1.137.63c-.433.78-1.221 1.369-2.105 1.814-.895.45-1.959.788-3.041 1.03zm2.67 6.532c.327-1.73.874-3.588 1.28-4.775l1.23.42c-.392 1.148-.92 2.945-1.232 4.596-.156.827-.253 1.595-.258 2.215-.002.31.019.566.06.766.042.205.097.31.132.356l-1.026.798c-.204-.262-.316-.581-.38-.893a5.047 5.047 0 0 1-.086-1.036c.006-.732.118-1.585.28-2.447zm2.686-5.679c-.18-.34-.281-.714-.21-1.066l1.275.26.003-.02s.002.068.08.216c.098.183.292.445.652.77.72.648 2.037 1.49 4.325 2.4l-.481 1.208c-2.369-.943-3.84-1.854-4.715-2.643-.438-.395-.742-.773-.929-1.125zm2.709-4.568c-.026-.03-.024-.029-.023-.028l.955-.882.048.055c.048.055.097.113.216.212.158.131.433.326.9.56.936.473 2.626 1.099 5.649 1.71l-.258 1.274c-3.089-.624-4.9-1.28-5.977-1.822-.54-.273-.9-.52-1.146-.723a3.063 3.063 0 0 1-.363-.356z" clip-rule="evenodd" />
        <path fill-rule="evenodd" d="M36.116 31.075c-.107-1.897-.475-3.924-.782-5.207l1.264-.303c.32 1.337.703 3.443.816 5.436.056.996.046 1.986-.083 2.848-.125.841-.377 1.66-.886 2.215l-.958-.878c.243-.265.445-.768.559-1.529.11-.74.123-1.633.07-2.582zm3.947-4.819c-.13-1.608-.579-3.335-.954-4.43l1.23-.42c.399 1.163.879 3 1.02 4.745.07.872.058 1.753-.107 2.529-.165.77-.498 1.51-1.134 1.995l-.788-1.035c.293-.222.52-.621.65-1.232.13-.605.148-1.348.083-2.152z" clip-rule="evenodd" />
        <path fill-rule="evenodd" d="M47.275 27.436a3.82 3.82 0 0 1 .36-.471l.92.92-.005.006a4.89 4.89 0 0 0-.201.278c-.13.19-.3.454-.487.777a15.202 15.202 0 0 0-1.161 2.496c-.705 1.99-.966 4.253.227 6.043l.207.31-.163.335c-1.663 3.416-6.242 7.295-12.042 8.888-5.85 1.606-12.982.9-19.718-4.923l.85-.983c6.384 5.52 13.061 6.152 18.523 4.652 5.322-1.46 9.455-4.934 11.056-7.889-1.294-2.24-.878-4.855-.166-6.866a16.502 16.502 0 0 1 1.8-3.573z" clip-rule="evenodd" />
        <path d="M32.465 17.413l2.205 1.214-1.547.053 1.457 1.715L32.577 19l-.702 2.617-.729-2.143-1.26.13 1.046-1.045-2.641-2.733 2.952 1.57 1.865-2.383-.642 2.399z" />
    </symbol>
    <symbol id="close" viewBox="0 0 24 24">
        <path d="M19 6.41L17.59 5L12 10.59L6.41 5L5 6.41L10.59 12L5 17.59L6.41 19L12 13.41L17.59 19L19 17.59L13.41 12L19 6.41Z"/>
    </symbol>
    <symbol id="baseline-apple" viewBox="0 0 15 19">
        <path d="M12.4979 17.7778C11.5287 18.7277 10.4705 18.5777 9.4518 18.1278C8.37381 17.6678 7.38482 17.6478 6.24749 18.1278C4.82335 18.7477 4.07173 18.5677 3.2212 17.7778C-1.60504 12.7485 -0.892975 5.08942 4.586 4.80946C5.92113 4.87945 6.85077 5.54936 7.63207 5.60935C8.79907 5.36939 9.91662 4.67947 11.1627 4.76946C12.6561 4.88945 13.7836 5.48937 14.5253 6.56923C11.4397 8.439 12.1715 12.5485 15 13.6983C14.4363 15.1981 13.7044 16.688 12.488 17.7878L12.4979 17.7778ZM7.53317 4.74946C7.38482 2.51975 9.17488 0.679977 11.232 0.5C11.5188 3.07967 8.91775 4.99943 7.53317 4.74946Z"/>
    </symbol>
    <symbol id="custom-like" viewBox="0 0 40 40">
        <path d="M7.01252 12.5665C7.36876 3.05285 15.6711 10.5845 19.7778 15.5395C20.6684 13.3215 24.112 9.62182 30.7618 12.5665C37.4116 15.5111 24.8245 27.1956 17.6997 32.6697C13.9889 29.9327 6.65628 22.0801 7.01252 12.5665Z" fill="#FF617A" stroke="#272A31" stroke-width="1.8621"/>
        <path d="M19.3198 22.0161C19.023 20.0812 18.9273 16.9195 20.062 14.7959" stroke="#272A31" stroke-width="1.8621"/>
    </symbol>
    <svg id="photo" viewBox="0 0 32 32">
        <path d="M16 20C17.6569 20 19 18.6569 19 17C19 15.3431 17.6569 14 16 14C14.3431 14 13 15.3431 13 17C13 18.6569 14.3431 20 16 20Z" />
        <path d="M24 9H20.83L19.59 7.65C19.22 7.24 18.68 7 18.12 7H13.88C13.32 7 12.78 7.24 12.4 7.65L11.17 9H8C6.9 9 6 9.9 6 11V23C6 24.1 6.9 25 8 25H24C25.1 25 26 24.1 26 23V11C26 9.9 25.1 9 24 9ZM16 22C13.24 22 11 19.76 11 17C11 14.24 13.24 12 16 12C18.76 12 21 14.24 21 17C21 19.76 18.76 22 16 22Z"/>
    </svg>
    <svg id="plus" viewBox="0 0 32 32">
        <path d="M17 11H15V15H11V17H15V21H17V17H21V15H17V11ZM16 6C10.49 6 6 10.49 6 16C6 21.51 10.49 26 16 26C21.51 26 26 21.51 26 16C26 10.49 21.51 6 16 6ZM16 24C11.59 24 8 20.41 8 16C8 11.59 11.59 8 16 8C20.41 8 24 11.59 24 16C24 20.41 20.41 24 16 24Z" />
    </svg>
    <symbol id="max" viewBox="0 0 25 24">
        <g filter="url(#filter0_d_1205_237)">
            <path d="M14.8478 6L16.4478 7.6L14.4374 9.59652L15.4252 10.5843L17.4217 8.57391L19.0217 10.1739V6H14.8478ZM6.5 10.1739L8.1 8.57391L10.0965 10.5843L11.0843 9.59652L9.07391 7.6L10.6739 6H6.5V10.1739ZM10.6739 18.5217L9.07391 16.9217L11.0843 14.9252L10.0965 13.9374L8.1 15.9478L6.5 14.3478V18.5217H10.6739ZM19.0217 14.3478L17.4217 15.9478L15.4252 13.9374L14.4374 14.9252L16.4478 16.9217L14.8478 18.5217H19.0217V14.3478Z" fill="white"/>
        </g>
        <defs>
            <filter id="filter0_d_1205_237" x="5.1" y="4.6" width="15.322" height="15.322" filterUnits="userSpaceOnUse" color-interpolation-filters="sRGB">
            <feFlood flood-opacity="0" result="BackgroundImageFix"/>
            <feColorMatrix in="SourceAlpha" type="matrix" values="0 0 0 0 0 0 0 0 0 0 0 0 0 0 0 0 0 0 127 0" result="hardAlpha"/>
            <feOffset/>
            <feGaussianBlur stdDeviation="0.7"/>
            <feComposite in2="hardAlpha" operator="out"/>
            <feColorMatrix type="matrix" values="0 0 0 0 0 0 0 0 0 0 0 0 0 0 0 0 0 0 0.15 0"/>
            <feBlend mode="normal" in2="BackgroundImageFix" result="effect1_dropShadow_1205_237"/>
            <feBlend mode="normal" in="SourceGraphic" in2="effect1_dropShadow_1205_237" result="shape"/>
            </filter>
        </defs>
    </symbol>
    <symbol id='circle-cancel' viewBox="0 0 24 24">
        <circle cx="12" cy="12" r="10" fill="#17181A"/>
        <path d="M17 8.00714L15.9929 7L12 10.9929L8.00714 7L7 8.00714L10.9929 12L7 15.9929L8.00714 17L12 13.0071L15.9929 17L17 15.9929L13.0071 12L17 8.00714Z" fill="white"/>
    </symbol>
    <symbol id="category-lotion" viewBox="0 0 22 33">
        <path d="M10.3652 4.39836V8.76318H12.3196C12.1893 7.43851 12.0069 4.55466 12.3196 3.61655C12.6323 2.67844 14.7952 3.22567 15.8375 3.61655L17.4011 2.18337C16.945 0.554708 9.51831 2.05308 8.93199 2.18337C8.46293 2.28761 8.51939 4.22463 8.60626 5.18011L10.3652 4.39836Z" fill="#BBC2D2"/>
        <path fill-rule="evenodd" clip-rule="evenodd" d="M9.1356 2.60611C9.12804 2.62571 9.11927 2.65147 9.11 2.68448C9.06417 2.84766 9.03218 3.09031 9.01597 3.38733C8.99661 3.74208 9.00143 4.13788 9.0176 4.4982L10.8212 3.6966V8.30711H11.8206C11.7674 7.66629 11.7155 6.84681 11.6976 6.05522C11.686 5.54655 11.6883 5.0433 11.7141 4.60342C11.7393 4.17435 11.7886 3.76731 11.887 3.4723C12.0289 3.04641 12.379 2.82653 12.7303 2.72701C13.0725 2.63009 13.4698 2.62772 13.8487 2.66421C14.497 2.72667 15.2018 2.9149 15.7318 3.09476L16.7727 2.14065C16.762 2.13526 16.7507 2.12979 16.7388 2.12428C16.5547 2.03911 16.28 1.97191 15.9169 1.93108C15.1947 1.84989 14.2426 1.88494 13.2581 1.97773C11.4596 2.14727 9.64288 2.50023 9.1356 2.60611ZM17.1217 1.29648C17.4327 1.44036 17.7329 1.67735 17.8402 2.06037L17.9157 2.33017L15.9394 4.14175L15.6774 4.0435C15.1775 3.85604 14.4173 3.63527 13.7612 3.57206C13.4299 3.54015 13.1628 3.55244 12.9789 3.60454C12.8042 3.65404 12.7666 3.71755 12.7522 3.76072C12.6942 3.93476 12.6491 4.23999 12.6246 4.65688C12.6007 5.06296 12.5981 5.53937 12.6094 6.03451C12.6319 7.02439 12.7091 8.06479 12.7734 8.7185L12.8227 9.21916H9.90915V5.10003L8.2097 5.85534L8.15207 5.22136C8.10748 4.73093 8.06999 3.98409 8.10527 3.33763C8.12272 3.01793 8.15913 2.69707 8.23192 2.43788C8.26805 2.30925 8.31992 2.17052 8.40021 2.04999C8.48056 1.92939 8.61819 1.7859 8.83303 1.73816C9.13704 1.6706 11.1602 1.25939 13.1726 1.06971C14.1751 0.975204 15.2018 0.932893 16.0188 1.02474C16.4252 1.07044 16.8101 1.15236 17.1217 1.29648Z" fill="white"/>
        <path d="M8.80753 7.89587C5.83685 8.31281 6.48397 11.3269 7.17887 12.7819H15.1919L15.5176 9.45939C14.5187 8.76449 11.7782 7.47893 8.80753 7.89587Z" fill="#75D6FF"/>
        <path fill-rule="evenodd" clip-rule="evenodd" d="M15.0368 9.68958C13.9517 9.01748 11.496 7.97907 8.87087 8.3475C8.20741 8.44061 7.79335 8.67069 7.53243 8.94495C7.26964 9.22119 7.12367 9.58286 7.07111 10.0059C6.97631 10.7689 7.19639 11.6552 7.47478 12.3259H14.7783L15.0368 9.68958ZM8.74411 7.4443C11.8637 7.00647 14.7185 8.34802 15.778 9.08506L15.9975 9.23777L15.6053 13.2379H6.89126L6.76733 12.9784C6.40106 12.2116 6.02826 11.0022 6.16602 9.89342C6.23615 9.32892 6.44198 8.76795 6.87164 8.31631C7.30317 7.8627 7.92222 7.55965 8.74411 7.4443Z" fill="white"/>
        <path d="M3.92139 14.7847C-0.352224 19.0584 0.742606 27.2147 3.92134 30.5502C8.74262 32.5046 13.9326 33.1778 15.9739 31.788C19.153 23.2408 18.2748 14.8499 16.9501 13.547C14.7135 11.7663 8.19501 10.5111 3.92139 14.7847Z" fill="#75D6FF"/>
        <path fill-rule="evenodd" clip-rule="evenodd" d="M11.1991 12.3515C8.84775 12.3494 6.2764 13.0746 4.24379 15.1072C2.22523 17.1257 1.44917 20.0912 1.58222 22.9984C1.71358 25.8685 2.72719 28.5865 4.18507 30.1649C6.53449 31.1082 8.9601 31.7393 11.0403 31.9699C12.0941 32.0867 13.0483 32.0994 13.8532 32.0029C14.5916 31.9144 15.1778 31.737 15.5992 31.4861C17.1279 27.3172 17.6829 23.1939 17.6949 19.9492C17.7009 18.308 17.5679 16.9011 17.3561 15.8336C17.2502 15.2995 17.1261 14.8588 16.994 14.5199C16.865 14.189 16.741 13.9888 16.645 13.8871C15.6197 13.0833 13.5519 12.3536 11.1991 12.3515ZM11.2 11.4395C13.7178 11.4417 16.0153 12.2199 17.2341 13.1902L17.2528 13.2051L17.2699 13.2219C17.5032 13.4514 17.6903 13.7951 17.8437 14.1886C18.0008 14.5914 18.1378 15.0868 18.2508 15.6561C18.4768 16.7955 18.6131 18.2647 18.6069 19.9525C18.5945 23.3287 18.0117 27.6172 16.4012 31.9469L16.3506 32.0831L16.2305 32.1649C15.6369 32.5691 14.8496 32.802 13.9617 32.9085C13.0687 33.0156 12.0414 32.9985 10.9398 32.8764C8.73669 32.6322 6.19307 31.9632 3.74996 30.9728L3.65892 30.9359L3.59115 30.8648C1.90582 29.0963 0.811482 26.107 0.671123 23.0401C0.530477 19.9668 1.34381 16.7173 3.59887 14.4622C5.83988 12.2212 8.66455 11.4372 11.2 11.4395Z" fill="white"/>
        <path d="M8.62744 20.9726L9.09684 18.2373L10.5344 21.0915L13.4975 18.4157L11.6492 22.1024L14.671 22.6673L11.4438 23.6187L11.6492 25.3728L10.2997 23.7971L8.07002 27.0972L8.80346 23.6187L5.81104 20.5266L8.62744 20.9726Z" fill="white"/>
        <path d="M17.5832 4.81738C17.2096 7.11065 17.1824 11.649 20.0623 11.4564C22.9421 11.2638 19.6095 6.95012 17.5832 4.81738Z" fill="white"/>
        <path fill-rule="evenodd" clip-rule="evenodd" d="M17.2808 3.83691L17.9137 4.50311C18.9365 5.57957 20.3098 7.22666 21.0653 8.65051C21.4329 9.34325 21.7078 10.079 21.6269 10.6968C21.5833 11.03 21.4344 11.3382 21.1458 11.563C20.8687 11.7787 20.5061 11.8836 20.0927 11.9112C19.2342 11.9687 18.5608 11.6668 18.0707 11.1302C17.598 10.6126 17.3189 9.90378 17.1572 9.16665C16.8336 7.69126 16.9415 5.91977 17.133 4.7439L17.2808 3.83691ZM17.9144 5.85604C17.829 6.84259 17.8341 7.99587 18.0481 8.97122C18.1929 9.63126 18.4236 10.1642 18.7441 10.5151C19.0472 10.8469 19.4504 11.0401 20.0318 11.0012C20.3383 10.9807 20.5016 10.9086 20.5855 10.8433C20.6579 10.7869 20.7054 10.7099 20.7226 10.5783C20.7635 10.2664 20.6186 9.75435 20.2597 9.07801C19.7083 8.0389 18.7764 6.83616 17.9144 5.85604Z" fill="white"/>
    </symbol>
    <symbol id="category-base" viewBox="0 0 28 30">
        <path d="M8.76553 20.906C1.49426 17.102 2.94612 9.45209 4.58095 6.10264C6.3088 1.40144 11.1503 0.674731 13.3551 0.899025C15.1849 1.00369 19.6274 2.19096 22.7591 6.10264C25.8908 10.0143 24.064 15.8968 22.7591 18.3491C21.1243 20.7864 16.0368 24.71 8.76553 20.906Z" fill="#FF617A"/>
        <path fill-rule="evenodd" clip-rule="evenodd" d="M13.3912 0.444276C15.3253 0.558282 19.8908 1.7902 23.1151 5.81758C24.7826 7.90045 25.1117 10.4854 24.8765 12.8188C24.6414 15.1525 23.8376 17.293 23.1617 18.5632L23.1508 18.5837L23.1378 18.603C22.2709 19.8954 20.5127 21.5541 18.0226 22.3998C15.515 23.2515 12.2961 23.2677 8.55413 21.31C4.77267 19.3317 3.23864 16.3295 2.88076 13.3889C2.52755 10.4868 3.31844 7.65919 4.16097 5.92342C5.07727 3.44963 6.81707 2.01526 8.60704 1.23563C10.3849 0.461294 12.221 0.327059 13.3912 0.444276ZM8.97125 2.07181C7.36258 2.77247 5.82269 4.04591 5.00897 6.2599L5.00095 6.28172L4.99076 6.30261C4.20223 7.91815 3.45757 10.5791 3.78613 13.2787C4.11142 15.9515 5.48711 18.6762 8.97691 20.5019C12.5062 22.3483 15.4667 22.3047 17.7293 21.5362C19.9968 20.7661 21.5946 19.2568 22.3675 18.1141C22.9943 16.9292 23.7488 14.9132 23.9691 12.7274C24.1906 10.5285 23.8672 8.21639 22.4031 6.38759C19.3697 2.59863 15.0603 1.45329 13.329 1.35425L13.3189 1.35368L13.3089 1.35266C12.2738 1.24735 10.5922 1.36578 8.97125 2.07181Z" fill="white"/>
        <path d="M9.09313 18.7257C2.05149 12.8546 6.15911 6.9119 9.09313 4.67444C17.8592 -0.480676 21.9669 8.07538 22.9249 12.9978C21.2484 17.3534 16.1348 24.5968 9.09313 18.7257Z" fill="#75D6FF"/>
        <path fill-rule="evenodd" clip-rule="evenodd" d="M19.2497 4.72492C21.5904 6.92733 22.8848 10.4036 23.3727 12.9107L23.3978 13.0393L23.3507 13.1616C22.496 15.3819 20.7543 18.3781 18.2787 20.073C17.0311 20.9272 15.5822 21.4603 13.9655 21.3755C12.3492 21.2907 10.6184 20.591 8.80124 19.076C5.17338 16.0512 4.35304 12.9358 4.90571 10.2457C5.44841 7.60407 7.29496 5.47232 8.81674 4.31182L8.83851 4.29522L8.8621 4.28134C11.1144 2.95682 13.11 2.48868 14.8608 2.65392C16.6137 2.81936 18.07 3.61492 19.2497 4.72492ZM9.34818 5.05359C11.4686 3.81156 13.2659 3.4195 14.7751 3.56194C16.2878 3.70471 17.562 4.38924 18.6247 5.38916C20.731 7.37098 21.9633 10.5547 22.4518 12.9562C21.6146 15.0752 19.9814 17.8019 17.7634 19.3205C16.6429 20.0877 15.3883 20.5368 14.0133 20.4647C12.638 20.3925 11.089 19.7959 9.3853 18.3754C5.97152 15.5291 5.32486 12.7376 5.7991 10.4292C6.28084 8.08436 7.94053 6.13399 9.34818 5.05359Z" fill="white"/>
        <path d="M26.6708 20.9287C19.6934 23.9081 7.30407 22.1701 1.98156 20.9287C-0.746779 25.8195 3.27865 28.8707 15.4444 29.0053C25.177 29.113 26.9839 23.6658 26.6708 20.9287Z" fill="#FF617A"/>
        <path fill-rule="evenodd" clip-rule="evenodd" d="M27.0545 20.2686L27.124 20.8764C27.294 22.3626 26.8884 24.5492 25.1532 26.3497C23.4117 28.1567 20.3898 29.5156 15.4394 29.4608C9.34961 29.3934 5.18615 28.6003 2.88295 27.1348C1.71353 26.3907 0.988213 25.4499 0.775224 24.319C0.564559 23.2004 0.871741 21.9817 1.58338 20.706L1.75072 20.4061L2.08521 20.4841C4.7226 21.0992 9.12295 21.8396 13.727 22.0555C18.3454 22.2719 23.1013 21.9566 26.4918 20.5088L27.0545 20.2686ZM2.2201 21.4506C1.69325 22.4916 1.52818 23.3891 1.67152 24.1501C1.82613 24.9711 2.35596 25.7185 3.37257 26.3653C5.44143 27.6817 9.37355 28.4816 15.4495 28.5488C20.2317 28.6017 22.9796 27.2908 24.4964 25.7168C25.7893 24.3754 26.2307 22.7997 26.2471 21.589C22.7227 22.9112 18.0801 23.1725 13.6843 22.9665C9.21167 22.7569 4.932 22.0596 2.2201 21.4506Z" fill="white"/>
        <path fill-rule="evenodd" clip-rule="evenodd" d="M8.5843 21.7559L18.3933 22.2727L18.5042 22.3557C18.7333 22.5272 18.9777 22.7921 19.0564 23.1438C19.1436 23.5339 19.0034 23.9165 18.6729 24.2324C18.3604 24.5311 17.8654 24.7878 17.1666 25.0076C16.46 25.2299 15.5069 25.4262 14.2412 25.5797C11.6929 25.8887 10.1333 25.4802 9.25727 24.7041C8.36448 23.9132 8.29044 22.8419 8.48806 22.1115L8.5843 21.7559ZM9.31147 22.7075C9.28854 23.1371 9.4221 23.6317 9.86205 24.0214C10.448 24.5405 11.6822 24.9712 14.1314 24.6742C15.3643 24.5247 16.2579 24.3374 16.8929 24.1376C17.5356 23.9354 17.877 23.7314 18.0428 23.573C18.1873 23.4349 18.1711 23.364 18.1666 23.3442C18.1665 23.3438 18.1664 23.3433 18.1663 23.3429C18.1571 23.3019 18.1238 23.2391 18.0531 23.1681L9.31147 22.7075Z" fill="white"/>
        <path d="M16.2552 16.0451L13.9345 16.0669L14.9666 15.35L13.6586 14.9425L15.377 14.3296L15.5336 12.1845L16.2329 13.6806L18.3168 11.9815L16.8981 13.8954L19.9433 15.7009L17.9306 15.5652L16.2754 18.1885L16.2552 16.0451Z" fill="white"/>
    </symbol>
    <svg id="category-eye" viewBox="0 0 36 33">
        <path d="M22.2375 31.0085L12.1352 23.9042C9.95778 20.6277 18.6955 9.2474 23.3366 3.9668C26.1631 5.1483 31.8861 8.80454 32.1662 13.9775C32.4464 19.1506 25.6638 27.4869 22.2375 31.0085Z" fill="white"/>
        <path fill-rule="evenodd" clip-rule="evenodd" d="M14.7941 14.4424C17.3033 10.5014 20.664 6.31699 22.9939 3.66603L23.2101 3.42001L23.5123 3.54633C24.9677 4.15469 27.1535 5.39183 29.0183 7.14322C30.8797 8.89127 32.4724 11.2012 32.6215 13.9532C32.6968 15.3438 32.298 16.9079 31.6358 18.5011C30.9712 20.1002 30.0265 21.7634 28.9725 23.3635C26.8646 26.5631 24.2931 29.5499 22.5642 31.3268L22.2931 31.6055L11.8027 24.2282L11.7552 24.1569C11.4089 23.6357 11.3025 22.9885 11.3457 22.2953C11.389 21.6008 11.5844 20.8216 11.8855 19.9938C12.4876 18.3378 13.5411 16.4106 14.7941 14.4424ZM12.4731 23.5847L22.18 30.411C23.8684 28.6417 26.2478 25.8416 28.2108 22.8617C29.2457 21.2908 30.1582 19.6799 30.7936 18.151C31.4315 16.6162 31.7755 15.1984 31.7107 14.0025C31.5796 11.5814 30.1708 9.47674 28.394 7.80805C26.7455 6.25991 24.8242 5.12972 23.4604 4.51786C21.1616 7.15544 17.9622 11.1647 15.5635 14.9322C14.3242 16.8788 13.3114 18.7411 12.7426 20.3054C12.4581 21.0878 12.2919 21.7764 12.256 22.3521C12.2226 22.8868 12.3034 23.2912 12.4731 23.5847Z" fill="#17181A"/>
        <path d="M16.9781 23.298C14.0946 24.5114 13.9861 22.0198 14.2924 20.6223C14.2064 18.8307 15.9025 19.1416 16.7613 19.521C18.0351 20.2744 19.8617 22.0846 16.9781 23.298Z" fill="#C1F78D"/>
        <path fill-rule="evenodd" clip-rule="evenodd" d="M15.0873 18.8093C15.7419 18.685 16.4833 18.8995 16.9454 19.1036L16.9701 19.1145L16.9933 19.1283C17.3368 19.3315 17.7194 19.6066 18.0545 19.93C18.3856 20.2494 18.6961 20.6407 18.8568 21.0802C19.0239 21.5371 19.0274 22.049 18.7292 22.5388C18.4445 23.0066 17.919 23.3966 17.1548 23.7182C16.3903 24.0399 15.7434 24.1456 15.2066 24.0348C14.6471 23.9193 14.2678 23.5814 14.0378 23.156C13.8165 22.7468 13.7346 22.2633 13.7213 21.8139C13.7086 21.3823 13.7581 20.95 13.8343 20.5827C13.8202 20.094 13.922 19.6838 14.1542 19.3697C14.3991 19.0384 14.7444 18.8744 15.0873 18.8093ZM14.8876 19.9119C14.8087 20.0186 14.7294 20.2202 14.7477 20.6002L14.7506 20.6606L14.7376 20.7197C14.6677 21.0391 14.6221 21.4191 14.633 21.7869C14.644 22.1598 14.712 22.4854 14.84 22.7222C14.9593 22.9427 15.1287 23.0875 15.3909 23.1416C15.6758 23.2004 16.1239 23.1625 16.8011 22.8775C17.4787 22.5924 17.8062 22.3011 17.9502 22.0646C18.0807 21.8501 18.0886 21.635 18.0003 21.3934C17.9055 21.1345 17.7008 20.8561 17.4212 20.5863C17.153 20.3275 16.8395 20.0993 16.5525 19.9273C16.1584 19.7574 15.6362 19.6334 15.2574 19.7053C15.0797 19.7391 14.9634 19.8095 14.8876 19.9119Z" fill="#17181A"/>
        <path d="M23.9206 20.0384C23.2655 16.9793 25.7337 17.3368 27.0497 17.8979C28.826 18.1471 28.2047 19.7556 27.672 20.5288C26.6945 21.6399 24.5758 23.0975 23.9206 20.0384Z" fill="#C1F78D"/>
        <path fill-rule="evenodd" clip-rule="evenodd" d="M28.6826 19.0176C28.6828 19.6839 28.334 20.3724 28.0474 20.7884L28.0321 20.8106L28.0142 20.8308C27.7506 21.1305 27.409 21.4552 27.0289 21.7242C26.6534 21.9899 26.2111 22.2221 25.7494 22.2982C25.2694 22.3773 24.7657 22.2854 24.3401 21.9012C23.9335 21.5344 23.6482 20.9454 23.4746 20.1347C23.3008 19.3236 23.3175 18.6684 23.5263 18.1616C23.7439 17.6334 24.1466 17.3237 24.6074 17.1769C25.0507 17.0357 25.5409 17.0453 25.985 17.1159C26.4113 17.1838 26.8269 17.313 27.1736 17.4562C27.6564 17.5333 28.0404 17.7098 28.3057 17.9964C28.5856 18.2988 28.6825 18.6686 28.6826 19.0176ZM27.6364 18.616C27.5463 18.5187 27.363 18.4032 26.9862 18.3503L26.9263 18.3419L26.8707 18.3182C26.57 18.19 26.205 18.0745 25.8417 18.0167C25.4733 17.9581 25.1407 17.9643 24.8842 18.0459C24.6454 18.122 24.4716 18.2615 24.3696 18.5091C24.2587 18.7781 24.2125 19.2253 24.3664 19.9437C24.5203 20.6626 24.7455 21.0386 24.9511 21.2241C25.1375 21.3923 25.3474 21.4401 25.6012 21.3983C25.8732 21.3535 26.1849 21.2042 26.502 20.9797C26.8062 20.7644 27.0889 20.4989 27.3113 20.2489C27.5516 19.8933 27.7706 19.4034 27.7706 19.0178C27.7705 18.8369 27.723 18.7095 27.6364 18.616Z" fill="#17181A"/>
        <path d="M19.3369 17.5435C16.6732 15.9027 18.3475 13.7284 19.6626 13.1651C20.9592 15.8015 22.0935 14.2519 22.2841 15.1713C22.4115 16.6457 22.0005 19.1843 19.3369 17.5435Z" fill="#FF617A"/>
        <path fill-rule="evenodd" clip-rule="evenodd" d="M19.8806 12.5757L20.0715 12.964C20.3779 13.5869 20.6563 13.9241 20.8818 14.1095C21.0976 14.2869 21.2822 14.3401 21.4429 14.3596C21.5308 14.3703 21.6153 14.3714 21.7145 14.3718C21.7205 14.3719 21.7268 14.3719 21.7332 14.3719C21.8186 14.3722 21.9382 14.3726 22.0501 14.3909C22.182 14.4126 22.3473 14.4651 22.4888 14.6038C22.627 14.7393 22.6955 14.9109 22.7303 15.0789L22.7358 15.1053L22.7381 15.1322C22.7725 15.5298 22.771 16.0011 22.7027 16.4618C22.6353 16.9168 22.4974 17.3969 22.2333 17.7832C21.9587 18.1848 21.5441 18.4852 20.9723 18.5274C20.4262 18.5676 19.8033 18.3668 19.0974 17.932C18.3769 17.4881 17.9064 16.9815 17.6621 16.4318C17.4153 15.8764 17.4182 15.3189 17.5713 14.8173C17.8681 13.8449 18.7277 13.0695 19.4828 12.7461L19.8806 12.5757ZM18.4956 16.0614C18.6454 16.3985 18.9645 16.7789 19.5758 17.1554C20.2017 17.541 20.6291 17.6381 20.9052 17.6178C21.1556 17.5993 21.3353 17.4806 21.4804 17.2684C21.6361 17.0408 21.7436 16.7124 21.8005 16.328C21.8526 15.9767 21.8582 15.6081 21.8353 15.2855C21.8055 15.2845 21.7659 15.2841 21.7104 15.2839C21.6125 15.2834 21.4796 15.2828 21.3328 15.265C21.024 15.2274 20.67 15.1162 20.3025 14.8139C20.022 14.5833 19.7466 14.2522 19.476 13.785C19.0292 14.0824 18.6032 14.5606 18.4436 15.0836C18.3467 15.4011 18.3483 15.73 18.4956 16.0614Z" fill="#17181A"/>
        <path d="M29.8378 14.6054C28.5554 16.8793 26.6884 15.5532 26.1764 14.4748C28.333 13.3087 27.0044 12.4128 27.7649 12.2243C28.9902 12.0705 31.1202 12.3315 29.8378 14.6054Z" fill="#FF617A"/>
        <path fill-rule="evenodd" clip-rule="evenodd" d="M25.5789 14.2797L25.9596 14.0739C26.4633 13.8016 26.7257 13.5648 26.8644 13.3821C26.9956 13.2094 27.0297 13.0679 27.0398 12.9457C27.0455 12.8769 27.0439 12.8104 27.041 12.7276C27.0409 12.7224 27.0407 12.7171 27.0405 12.7115C27.038 12.6411 27.0342 12.5354 27.0467 12.4352C27.0617 12.3153 27.104 12.159 27.2291 12.0211C27.3511 11.8867 27.5075 11.8185 27.6552 11.7819L27.6814 11.7755L27.7082 11.7721C28.0434 11.73 28.4424 11.7158 28.8355 11.7587C29.223 11.8009 29.6405 11.9024 29.9845 12.1187C30.3443 12.3448 30.6239 12.6997 30.6805 13.2017C30.7341 13.678 30.5788 14.2203 30.2351 14.8297C29.883 15.4541 29.4657 15.8756 28.9979 16.1055C28.5245 16.3382 28.0407 16.354 27.6021 16.2385C26.7561 16.0155 26.0661 15.3057 25.7645 14.6706L25.5789 14.2797ZM28.5956 15.287C28.8546 15.1597 29.1516 14.8942 29.4407 14.3817C29.7382 13.8541 29.7975 13.5111 29.7741 13.3038C29.7537 13.1221 29.6647 12.9949 29.4991 12.8908C29.3178 12.7769 29.0531 12.6998 28.7367 12.6653C28.4731 12.6366 28.1981 12.64 27.9515 12.6629C27.9518 12.6731 27.9522 12.6843 27.9526 12.6965L27.9526 12.6971C27.9554 12.7787 27.9593 12.8933 27.9488 13.0208C27.9264 13.2918 27.8407 13.6047 27.5907 13.9338C27.4122 14.1689 27.1589 14.4003 26.8083 14.6301C27.0626 14.9563 27.4386 15.2522 27.8345 15.3565C28.087 15.423 28.3423 15.4115 28.5956 15.287Z" fill="#17181A"/>
        <path d="M25.6153 11.6029C24.6588 12.9513 22.6598 11.4516 21.7798 10.5332C20.4645 8.96985 23.0827 8.00252 24.5562 7.71428C25.3078 8.44865 26.5717 10.2545 25.6153 11.6029Z" fill="#75D6FF"/>
        <path fill-rule="evenodd" clip-rule="evenodd" d="M21.8605 8.27219C22.6121 7.74463 23.7087 7.41531 24.4689 7.26661L24.7039 7.22064L24.8752 7.38799C25.2829 7.78638 25.8288 8.47179 26.1487 9.25594C26.4685 10.0397 26.5934 11.0123 25.9875 11.8666C25.6722 12.3111 25.2493 12.5391 24.7833 12.5872C24.3387 12.6332 23.8883 12.5128 23.4853 12.3353C22.6806 11.9809 21.9129 11.3308 21.4508 10.8486L21.4406 10.8379L21.4312 10.8267C21.0362 10.3572 20.879 9.85464 21.011 9.35678C21.1345 8.89054 21.4861 8.53493 21.8605 8.27219ZM22.1199 10.2285C21.8661 9.92248 21.8579 9.72112 21.8926 9.59046C21.936 9.42663 22.0844 9.22926 22.3844 9.01872C22.9166 8.64522 23.7286 8.36749 24.404 8.21273C24.7192 8.55788 25.0836 9.05958 25.3043 9.60045C25.5653 10.2403 25.5941 10.8448 25.2436 11.3389C25.0806 11.5686 24.895 11.6588 24.6896 11.68C24.4629 11.7034 24.1792 11.6443 23.8529 11.5006C23.2045 11.2151 22.5385 10.663 22.1199 10.2285Z" fill="#17181A"/>
        <path d="M22.4027 26.5088C20.1018 27.3273 20.6568 25.6215 20.8439 24.7316C18.8133 23.4647 21.4969 22.6265 22.6575 22.2213C23.5313 23.3094 24.7037 25.6903 22.4027 26.5088Z" fill="#FF617A"/>
        <path fill-rule="evenodd" clip-rule="evenodd" d="M22.3525 21.8444C22.407 21.8256 22.4587 21.8077 22.5069 21.7909L22.8111 21.6847L23.0128 21.9359C23.4743 22.5105 24.0415 23.4545 24.1722 24.4041C24.2388 24.888 24.1958 25.4041 23.9333 25.8704C23.6681 26.3415 23.2105 26.7055 22.5554 26.9385C21.9557 27.1519 21.4597 27.2336 21.0645 27.1472C20.8566 27.1017 20.6736 27.0089 20.5283 26.8653C20.3847 26.7235 20.2999 26.554 20.2518 26.3872C20.1603 26.0695 20.1896 25.7158 20.2341 25.4298C20.2601 25.263 20.2971 25.0888 20.3316 24.9338C19.9417 24.64 19.6765 24.298 19.6519 23.8894C19.6215 23.3834 19.9722 23.0179 20.2814 22.7876C20.6101 22.5429 21.0344 22.3432 21.4273 22.1838C21.7562 22.0505 22.0879 21.9358 22.3525 21.8444ZM20.5623 23.8346C20.5641 23.8633 20.6036 24.0445 21.085 24.3448L21.3555 24.5136L21.2899 24.8256C21.2732 24.9048 21.2556 24.9828 21.238 25.0606C21.2002 25.2279 21.1626 25.3944 21.1353 25.5701C21.095 25.8286 21.0943 26.017 21.1282 26.1347C21.1429 26.1856 21.1597 26.2071 21.1693 26.2165C21.177 26.2242 21.1986 26.2429 21.2593 26.2562C21.4013 26.2872 21.6989 26.2752 22.2497 26.0792C22.745 25.903 23.0037 25.6624 23.1385 25.423C23.2761 25.1786 23.3168 24.8781 23.2687 24.5284C23.1851 23.9208 22.8453 23.2608 22.4928 22.7611C22.2662 22.8399 22.0181 22.9284 21.7701 23.029C21.3968 23.1804 21.0596 23.3454 20.8261 23.5192C20.5731 23.7076 20.5611 23.8144 20.5623 23.8346Z" fill="#17181A"/>
        <path fill-rule="evenodd" clip-rule="evenodd" d="M6.47309 2.77643L3.34805 3.43394L3.16027 2.54143L8.73759 1.36795L9.07657 2.19877L6.26616 3.98982L9.24997 3.3431L9.64545 4.1332L6.38835 6.9597L10.8616 7.54788L8.00689 10.7263L10.5246 10.3065L10.6746 11.2062L5.58833 12.0542L9.02623 8.22645L4.25934 7.59965L7.70244 4.61175L3.96738 5.42129L3.6257 4.59105L6.47309 2.77643Z" fill="#17181A"/>
        <path fill-rule="evenodd" clip-rule="evenodd" d="M9.31369 17.3143L6.1977 6.07679L7.07659 5.83309L10.1926 17.0706L9.31369 17.3143Z" fill="#17181A"/>
        <path d="M12.1067 15.8616C11.1259 17.0614 7.79954 16.9306 7.49615 16.8907C8.61459 17.7737 8.69816 23.6581 8.60014 26.49C9.35109 27.5597 11.2788 29.1214 12.9817 26.8106C14.6847 24.4998 13.1079 18.5485 12.1067 15.8616Z" fill="#FF617A"/>
        <path fill-rule="evenodd" clip-rule="evenodd" d="M8.62635 16.9076C8.04344 16.9279 7.59833 16.9041 7.49615 16.8907C7.7005 17.052 7.87031 17.3803 8.01077 17.8265C8.63906 19.8221 8.68025 24.1755 8.60014 26.49C9.35109 27.5597 11.2788 29.1214 12.9817 26.8106C14.506 24.7424 13.4028 19.7578 12.4366 16.8077C12.3232 16.4617 12.2118 16.1437 12.1067 15.8616C11.9213 16.0883 11.6523 16.2675 11.3357 16.4088C10.5411 16.7634 9.44712 16.8791 8.62635 16.9076ZM8.95482 17.8056C8.98663 17.9223 9.01615 18.0417 9.04366 18.1628C9.22155 18.9458 9.33802 19.9031 9.4137 20.8897C9.55436 22.7238 9.56117 24.76 9.52182 26.1929C9.83593 26.5654 10.2671 26.9164 10.6947 27.044C10.9266 27.1132 11.1444 27.1141 11.3643 27.0317C11.5916 26.9465 11.8987 26.7428 12.2475 26.2695C12.5301 25.886 12.7257 25.2745 12.7953 24.4281C12.8637 23.5957 12.8032 22.625 12.6557 21.6081C12.4335 20.0768 12.0245 18.5104 11.6294 17.2756C11.5224 17.3208 11.4156 17.3611 11.311 17.3969C10.7711 17.582 10.1827 17.687 9.64996 17.7473C9.41215 17.7742 9.17782 17.793 8.95482 17.8056Z" fill="#17181A"/>
    </svg>
    <svg id="category-lip" viewBox="0 0 12 34">
        <path d="M5.97028 0.902344C4.96409 0.902344 3.26847 2.75557 2.54643 3.68218L2.54643 11.2759C1.26071 11.4928 2.01071 15.1631 2.54643 16.9711L1.21882 17.4457C0.156725 18.2051 1.66135 27.6159 2.54643 32.2263C8.30409 34.179 10.5354 31.8195 10.9314 30.3957C10.6519 26.1017 10.1068 17.3101 10.1627 16.4965C10.2186 15.6829 9.30096 15.5699 8.83513 15.6151C8.60222 14.2817 8.13639 11.4928 8.13639 11.0047C8.13639 10.5165 7.20473 10.4397 6.7389 10.4623C6.90194 7.27562 6.97647 0.902344 5.97028 0.902344Z" fill="#FF617A"/>
        <path fill-rule="evenodd" clip-rule="evenodd" d="M2.93091 3.81517L2.93091 11.6004L2.61049 11.6545C2.51557 11.6705 2.38978 11.7483 2.30137 12.0971C2.21481 12.4386 2.20087 12.9243 2.24664 13.4958C2.33746 14.6299 2.65128 15.9713 2.91507 16.8615L3.01839 17.2103L1.43161 17.7775C1.42413 17.7901 1.41441 17.8087 1.40328 17.8351C1.37155 17.9104 1.34004 18.0217 1.31345 18.175C1.26033 18.4814 1.23547 18.9034 1.23819 19.4248C1.24361 20.4645 1.35782 21.8394 1.5343 23.3468C1.87575 26.2632 2.44518 29.6336 2.88178 31.9323C5.58842 32.8131 7.42256 32.6873 8.60852 32.2193C9.78542 31.7548 10.3577 30.9419 10.5435 30.3519C10.4038 28.2037 10.2002 24.9704 10.0376 22.1628C9.95552 20.7441 9.8838 19.4332 9.83611 18.4255C9.78917 17.4338 9.76344 16.7017 9.77937 16.4698C9.78804 16.3437 9.75901 16.272 9.72774 16.2266C9.69305 16.1761 9.63359 16.1267 9.53903 16.0848C9.34003 15.9967 9.06706 15.9784 8.87235 15.9973L8.51787 16.0317L8.45659 15.6809C8.33988 15.0128 8.16482 13.98 8.01881 13.0523C7.94584 12.5887 7.87984 12.1495 7.83198 11.7944C7.78701 11.4609 7.75405 11.1743 7.75219 11.0178C7.75015 11.016 7.74744 11.0137 7.7439 11.0109C7.70821 10.9824 7.63484 10.9452 7.51367 10.913C7.2742 10.8493 6.96779 10.8356 6.75762 10.8458L6.33342 10.8664L6.35512 10.4422C6.43631 8.85549 6.49517 6.47869 6.40914 4.50365C6.36599 3.51309 6.28702 2.64122 6.16126 2.02435C6.09766 1.7124 6.0272 1.49241 5.95802 1.35949C5.94075 1.32632 5.92666 1.30397 5.9162 1.28934C5.77181 1.30464 5.56914 1.37927 5.31112 1.53505C5.02833 1.70579 4.71982 1.94883 4.40981 2.22939C3.83584 2.74883 3.28762 3.36854 2.93091 3.81517ZM5.89469 1.26459C5.89472 1.26436 5.89632 1.26546 5.8994 1.26861C5.89619 1.2664 5.89465 1.26483 5.89469 1.26459ZM4.91378 0.876946C5.24515 0.676878 5.61325 0.517578 5.97038 0.517578C6.32638 0.517578 6.53297 0.799046 6.63994 1.00457C6.75864 1.23264 6.84615 1.53545 6.91452 1.87079C7.05268 2.54849 7.13355 3.46911 7.17716 4.47019C7.25764 6.31762 7.21338 8.49921 7.14205 10.0823C7.32667 10.0943 7.52614 10.1209 7.71119 10.1701C7.88116 10.2153 8.06981 10.2874 8.22337 10.4099C8.38739 10.5408 8.52086 10.7398 8.52086 11.0043C8.52086 11.0952 8.54552 11.3333 8.59384 11.6917C8.6406 12.0386 8.70562 12.4715 8.77822 12.9328C8.90156 13.7164 9.04596 14.5768 9.15788 15.2259C9.3778 15.2384 9.62499 15.2821 9.85034 15.3819C10.0364 15.4644 10.225 15.5929 10.3612 15.7911C10.5009 15.9942 10.5656 16.2418 10.5463 16.5225C10.5343 16.6974 10.5557 17.3693 10.604 18.3891C10.6515 19.3928 10.723 20.7006 10.8051 22.1183C10.9692 24.9535 11.1753 28.2239 11.315 30.3703L11.3193 30.4354L11.3018 30.4983C11.0709 31.3285 10.3277 32.3672 8.89075 32.9343C7.45332 33.5017 5.35762 33.5852 2.42308 32.5899L2.21122 32.5181L2.16905 32.2984C1.72547 29.9878 1.12626 26.4726 0.770766 23.4362C0.593217 21.9197 0.475094 20.5114 0.469451 19.4288C0.466638 18.8892 0.491565 18.4153 0.555997 18.0437C0.588186 17.8581 0.632387 17.6848 0.694873 17.5365C0.755433 17.3929 0.847356 17.2385 0.995359 17.1327L1.039 17.1015L2.07813 16.73C1.83044 15.8295 1.56542 14.6196 1.48034 13.5571C1.43236 12.958 1.43851 12.3724 1.55619 11.9082C1.64666 11.5513 1.82664 11.1912 2.16215 11.0065L2.16215 3.54971L2.24333 3.44553C2.61427 2.96949 3.23361 2.25702 3.89398 1.6594C4.2239 1.36082 4.57309 1.08264 4.91378 0.876946Z" fill="#17181A"/>
        <path d="M5.04517 24.8565L2.84194 23.3288L4.48475 23.463L3.12574 21.5074L5.09666 23.1968L6.11715 20.5697L6.66029 22.8804L8.00856 22.9002L6.79029 23.8547L9.29327 27.0106L6.33674 25.0223L4.10971 27.2647L5.04517 24.8565Z" fill="#17181A"/>
        <path fill-rule="evenodd" clip-rule="evenodd" d="M5.02209 4.8928C4.0697 5.17819 3.04283 4.7103 2.41992 4.25832L2.83668 3.68397C3.40158 4.09387 4.18883 4.4017 4.8184 4.21304C5.39004 4.04175 6.03497 3.38439 6.16158 1.36328L6.86981 1.40765C6.73726 3.52363 6.0324 4.59005 5.02209 4.8928Z" fill="#17181A"/>
        <path fill-rule="evenodd" clip-rule="evenodd" d="M5.48438 11.368C5.90778 10.9904 6.28716 10.4721 6.50422 10.1104L7.11271 10.4754C6.87168 10.8772 6.44941 11.4582 5.95665 11.8976C5.71036 12.1172 5.431 12.3154 5.13373 12.4314C4.83243 12.549 4.49261 12.5888 4.15723 12.4547L4.42077 11.7958C4.54348 11.8449 4.69036 11.8427 4.87578 11.7704C5.06523 11.6964 5.27258 11.5568 5.48438 11.368Z" fill="#17181A"/>
        <path fill-rule="evenodd" clip-rule="evenodd" d="M4.71563 18.2058C3.71485 18.1647 2.80913 17.7975 2.271 17.4664L2.64291 16.862C3.09729 17.1416 3.88647 17.4616 4.74475 17.4968C5.59084 17.5316 6.49188 17.2913 7.23215 16.4688L7.7596 16.9435C6.85077 17.9533 5.7286 18.2474 4.71563 18.2058Z" fill="#17181A"/>
    </svg>
    <svg id="category-innerBeauty" viewBox="0 0 26 32">
        <path d="M3.61951 24.068C7.50507 22.333 13.7514 9.76642 16.3888 3.7L22.9703 6.67669C21.606 7.47418 14.9289 21.6881 11.8075 28.8183L3.61951 24.068Z" fill="white"/>
        <path fill-rule="evenodd" clip-rule="evenodd" d="M3.61951 24.068L11.8075 28.8183C11.9257 28.5481 12.0491 28.2678 12.1771 27.9784C15.0575 21.4662 20.2786 10.3689 22.3429 7.39395C22.6079 7.01203 22.8209 6.76398 22.9703 6.67669L16.3888 3.7C16.2731 3.96622 16.1504 4.24496 16.0212 4.53475C13.4214 10.3689 8.20926 20.6829 4.50128 23.5251C4.19643 23.7588 3.90174 23.942 3.61951 24.068ZM5.34611 24.0153L11.3835 27.5179C12.9473 23.986 15.18 19.1466 17.229 14.971C18.3466 12.6935 19.4147 10.6028 20.2927 9.02633C20.7307 8.23969 21.1292 7.56707 21.4681 7.05873C21.4784 7.04315 21.4888 7.02768 21.4991 7.01232L16.8523 4.91061C15.5003 7.94407 13.4487 12.1771 11.2621 15.9643C10.0635 18.0403 8.81287 20.0023 7.60449 21.5646C6.86641 22.5189 6.10553 23.3763 5.34611 24.0153Z" fill="#17181A"/>
        <path d="M22.3978 7.31322L16.0832 4.37795L17.7771 0.372727L25.3781 4.56941C24.8821 4.56813 23.0393 6.58929 22.3978 7.31322Z" fill="#C1F78D"/>
        <path fill-rule="evenodd" clip-rule="evenodd" d="M22.1712 6.20211C22.4962 5.84682 22.9014 5.41579 23.3015 5.02054C23.4227 4.90082 23.546 4.78178 23.6686 4.6674L18.2227 1.66059L17.2663 3.92211L22.1712 6.20211ZM16.0832 4.37795L22.3978 7.31322C22.8224 6.83397 23.7736 5.78619 24.512 5.13304C24.889 4.79958 25.2105 4.56898 25.3781 4.56941L17.7771 0.372727L16.0832 4.37795Z" fill="#17181A"/>
        <path d="M18.8198 13.844L12.9031 11.0545L16.3887 3.70054L23.0381 6.64572C22.5593 6.9667 19.848 11.7573 18.8198 13.844Z" fill="#C1F78D"/>
        <path fill-rule="evenodd" clip-rule="evenodd" d="M18.4081 12.6415C18.9436 11.6134 19.6669 10.3001 20.3453 9.12631C20.7817 8.37142 21.2054 7.66389 21.5536 7.12039C21.5764 7.08494 21.5989 7.05001 21.6211 7.01565L16.8321 4.89446L14.1187 10.6193L18.4081 12.6415ZM18.8198 13.844C19.629 12.2018 21.4806 8.88489 22.4661 7.3899C22.7328 6.98526 22.9361 6.71409 23.0381 6.64572L16.3887 3.70054L12.9031 11.0545L18.8198 13.844Z" fill="#17181A"/>
        <path d="M0.89543 25.495L4.42125 23.5717L12.0804 28.0717L11.0578 31.4768L0.89543 25.495Z" fill="#C1F78D"/>
        <path fill-rule="evenodd" clip-rule="evenodd" d="M0.89543 25.495L11.0578 31.4768L12.0804 28.0717L4.42125 23.5717L0.89543 25.495ZM2.74468 25.5251L10.5187 30.1011L11.0009 28.4953L4.40456 24.6197L2.74468 25.5251Z" fill="#17181A"/>
        <path d="M11.7191 19.1163L12.3814 17.802L12.7111 19.1189L14.5771 19.2613L13.4697 19.758L13.2457 20.9848L12.8405 20.1818L10.6909 21.9213L11.7059 20.0141L10.5056 18.6715L11.7191 19.1163Z" fill="#17181A"/>
        <path d="M15.8568 15.1909C18.9425 14.6763 21.8801 17.5511 22.9631 19.0527C23.839 20.0986 22.9905 20.8005 21.4091 21.302C19.8276 21.8036 11.9996 15.834 15.8568 15.1909Z" fill="#C1F78D"/>
        <path fill-rule="evenodd" clip-rule="evenodd" d="M23.4611 20.6697C23.0688 21.1517 22.3434 21.4844 21.5468 21.7371C21.203 21.8461 20.7876 21.7644 20.417 21.6438C20.0214 21.515 19.5728 21.3058 19.1099 21.0479C18.1827 20.5314 17.1486 19.7918 16.2877 19.0145C15.4454 18.2541 14.699 17.3959 14.4424 16.6334C14.3097 16.2391 14.2829 15.7898 14.5457 15.4028C14.7995 15.0291 15.2465 14.8306 15.7817 14.7414C17.4867 14.4571 19.112 15.1135 20.4149 15.9873C21.7148 16.8592 22.7533 17.9862 23.3234 18.7733C23.5721 19.0737 23.7372 19.3953 23.7664 19.7363C23.7972 20.0952 23.672 20.4107 23.4611 20.6697ZM22.8577 19.8142C22.8495 19.7186 22.7966 19.5646 22.6134 19.3459L22.6028 19.3332L22.5931 19.3198C22.0782 18.6058 21.1107 17.5522 19.9068 16.7448C18.6988 15.9345 17.3124 15.4108 15.9317 15.641C15.5026 15.7126 15.3504 15.8413 15.3002 15.9153C15.259 15.9759 15.2233 16.0945 15.3068 16.3425C15.4825 16.8645 16.0687 17.588 16.8989 18.3376C17.7106 19.0704 18.6889 19.7694 19.5538 20.2512C19.9868 20.4924 20.3791 20.6723 20.6993 20.7765C21.0444 20.8889 21.2195 20.884 21.2711 20.8677C22.0559 20.6188 22.5455 20.3498 22.7538 20.0939C22.8432 19.9841 22.8648 19.8966 22.8577 19.8142Z" fill="#17181A"/>
        <path d="M15.5868 22.9521C16.425 19.9381 20.2721 18.4914 22.0909 18.1448C23.409 17.7931 23.6863 18.8588 23.4723 20.504C23.2582 22.1492 14.5389 26.7195 15.5868 22.9521Z" fill="#C1F78D"/>
        <path fill-rule="evenodd" clip-rule="evenodd" d="M23.7666 18.3769C24.0375 18.9362 24.0324 19.7342 23.9245 20.5629C23.878 20.9206 23.6284 21.2625 23.3624 21.5474C23.0784 21.8514 22.6992 22.1695 22.2697 22.48C21.4097 23.1019 20.3022 23.7263 19.2339 24.1779C18.1886 24.6197 17.0953 24.9333 16.2959 24.8435C15.8825 24.7971 15.4639 24.6314 15.2243 24.2296C14.993 23.8416 15.0021 23.3527 15.1475 22.8299C15.6107 21.1646 16.8926 19.9692 18.2354 19.1579C19.5751 18.3485 21.0354 17.8838 21.9898 17.6999C22.3672 17.6015 22.7284 17.5879 23.0497 17.7055C23.388 17.8294 23.621 18.0762 23.7666 18.3769ZM22.7361 18.562C22.6461 18.529 22.4842 18.5119 22.2085 18.5854L22.1925 18.5897L22.1763 18.5928C21.3116 18.7576 19.9477 19.189 18.707 19.9386C17.462 20.6908 16.4012 21.7258 16.0262 23.0743C15.9096 23.4935 15.9619 23.6858 16.0077 23.7625C16.0452 23.8255 16.1376 23.908 16.3976 23.9372C16.945 23.9987 17.8485 23.7733 18.8788 23.3378C19.8861 22.912 20.9331 22.321 21.7354 21.7409C22.1371 21.4504 22.466 21.171 22.6958 20.9249C22.9435 20.6597 23.0131 20.4989 23.0201 20.4453C23.1263 19.6288 23.0896 19.0714 22.9458 18.7744C22.884 18.6469 22.8139 18.5904 22.7361 18.562Z" fill="#17181A"/>
    </svg>
</svg>
